<svg xmlns="http://www.w3.org/2000/svg" width="480" height="814" class="">
    <defs>
        <style/>
    </defs>
    <style>@keyframes animation-gauge{0%{stroke-dasharray:0 329}}@keyframes animation-rainbow{0%,to{color:#7f00ff;fill:#7f00ff}14%{color:#a933ff;fill:#a933ff}29%{color:#007fff;fill:#007fff}43%{color:#00ff7f;fill:#00ff7f}57%{color:#ff0;fill:#ff0}71%{color:#ff7f00;fill:#ff7f00}86%{color:red;fill:red}}svg{font-family:-apple-system,BlinkMacSystemFont,Segoe UI,Helvetica,Arial,sans-serif,Apple Color Emoji,Segoe UI Emoji;color:#777}h2,h3{margin:8px 0 2px;padding:0;color:#0366d6;font-weight:400}h2 svg,h3 svg{fill:currentColor}h2{font-size:16px}h3,svg{font-size:14px}section&gt;.field{margin-left:5px;margin-right:5px}.field{display:flex;align-items:center;margin-bottom:2px;white-space:nowrap}.field svg{margin:0 8px;fill:#959da5;flex-shrink:0}.row{display:flex;flex-wrap:wrap}.row section{flex:1 1 0}.column{display:flex;flex-direction:column;align-items:center}.margin-bottom{margin-bottom:16px}.chart{padding:0 8px}:root{--color-calendar-graph-day-bg:#ebedf0;--color-calendar-graph-day-border:rgba(27,31,35,0.06);--color-calendar-graph-day-L1-bg:#9be9a8;--color-calendar-graph-day-L2-bg:#40c463;--color-calendar-graph-day-L3-bg:#30a14e;--color-calendar-graph-day-L4-bg:#216e39;--color-calendar-halloween-graph-day-L1-bg:#ffee4a;--color-calendar-halloween-graph-day-L2-bg:#ffc501;--color-calendar-halloween-graph-day-L3-bg:#fe9600;--color-calendar-halloween-graph-day-L4-bg:#03001c;--color-calendar-winter-graph-day-L1-bg:#0a3069;--color-calendar-winter-graph-day-L2-bg:#0969da;--color-calendar-winter-graph-day-L3-bg:#54aeff;--color-calendar-winter-graph-day-L4-bg:#b6e3ff;--color-calendar-graph-day-L4-border:rgba(27,31,35,0.06);--color-calendar-graph-day-L3-border:rgba(27,31,35,0.06);--color-calendar-graph-day-L2-border:rgba(27,31,35,0.06);--color-calendar-graph-day-L1-border:rgba(27,31,35,0.06)}#metrics-end{width:100%}</style>
    <style/>
    <foreignObject x="0" y="0" width="100%" height="100%">
        <div xmlns="http://www.w3.org/1999/xhtml" xmlns:xlink="http://www.w3.org/1999/xlink">
            <section class="stargazers">
                <h2 class="field">
                    <svg xmlns="http://www.w3.org/2000/svg" viewBox="0 0 16 16" width="16" height="16">
                        <path fill-rule="evenodd" d="M8 .25a.75.75 0 01.673.418l1.882 3.815 4.21.612a.75.75 0 01.416 1.279l-3.046 2.97.719 4.192a.75.75 0 01-1.088.791L8 12.347l-3.766 1.98a.75.75 0 01-1.088-.79l.72-4.194L.818 6.374a.75.75 0 01.416-1.28l4.21-.611L7.327.668A.75.75 0 018 .25zm0 2.445L6.615 5.5a.75.75 0 01-.564.41l-3.097.45 2.24 2.184a.75.75 0 01.216.664l-.528 3.084 2.769-1.456a.75.75 0 01.698 0l2.77 1.456-.53-3.084a.75.75 0 01.216-.664l2.24-2.183-3.096-.45a.75.75 0 01-.564-.41L8 2.694v.001z"/>
                    </svg>
                    Stargazers
                </h2>
                <div class="row margin-bottom">
                    <section class="column chart">
                        <h3>Total stargazers</h3>
                        <svg xmlns="http://www.w3.org/2000/svg" width="480" height="315">
                            <g transform="translate(10,270)" fill="none" font-size="10" font-family="sans-serif" text-anchor="middle">
                                <path class="domain" stroke="rgba(127, 127, 127, .8)" d="M10.5,0.5H460.5"/>
                                <g class="tick" opacity="1" transform="translate(10.5,0)">
                                    <line stroke="currentColor" y2="6" stroke-opacity="0.5"/>
                                    <text fill="rgba(127, 127, 127, .8)" y="9" dy="0.71em" transform="translate(-5,5) rotate(-45)" style="text-anchor: end;">Tue 02</text>
                                </g>
                                <g class="tick" opacity="1" transform="translate(45.11538461538462,0)">
                                    <line stroke="currentColor" y2="6" stroke-opacity="0.5"/>
                                    <text fill="rgba(127, 127, 127, .8)" y="9" dy="0.71em" transform="translate(-5,5) rotate(-45)" style="text-anchor: end;">Wed 03</text>
                                </g>
                                <g class="tick" opacity="1" transform="translate(79.73076923076924,0)">
                                    <line stroke="currentColor" y2="6" stroke-opacity="0.5"/>
                                    <text fill="rgba(127, 127, 127, .8)" y="9" dy="0.71em" transform="translate(-5,5) rotate(-45)" style="text-anchor: end;">Thu 04</text>
                                </g>
                                <g class="tick" opacity="1" transform="translate(114.34615384615385,0)">
                                    <line stroke="currentColor" y2="6" stroke-opacity="0.5"/>
                                    <text fill="rgba(127, 127, 127, .8)" y="9" dy="0.71em" transform="translate(-5,5) rotate(-45)" style="text-anchor: end;">Fri 05</text>
                                </g>
                                <g class="tick" opacity="1" transform="translate(148.96153846153848,0)">
                                    <line stroke="currentColor" y2="6" stroke-opacity="0.5"/>
                                    <text fill="rgba(127, 127, 127, .8)" y="9" dy="0.71em" transform="translate(-5,5) rotate(-45)" style="text-anchor: end;">Sat 06</text>
                                </g>
                                <g class="tick" opacity="1" transform="translate(183.5769230769231,0)">
                                    <line stroke="currentColor" y2="6" stroke-opacity="0.5"/>
                                    <text fill="rgba(127, 127, 127, .8)" y="9" dy="0.71em" transform="translate(-5,5) rotate(-45)" style="text-anchor: end;">Jun 07</text>
                                </g>
                                <g class="tick" opacity="1" transform="translate(218.1923076923077,0)">
                                    <line stroke="currentColor" y2="6" stroke-opacity="0.5"/>
                                    <text fill="rgba(127, 127, 127, .8)" y="9" dy="0.71em" transform="translate(-5,5) rotate(-45)" style="text-anchor: end;">Mon 08</text>
                                </g>
                                <g class="tick" opacity="1" transform="translate(252.8076923076923,0)">
                                    <line stroke="currentColor" y2="6" stroke-opacity="0.5"/>
                                    <text fill="rgba(127, 127, 127, .8)" y="9" dy="0.71em" transform="translate(-5,5) rotate(-45)" style="text-anchor: end;">Tue 09</text>
                                </g>
                                <g class="tick" opacity="1" transform="translate(287.42307692307696,0)">
                                    <line stroke="currentColor" y2="6" stroke-opacity="0.5"/>
                                    <text fill="rgba(127, 127, 127, .8)" y="9" dy="0.71em" transform="translate(-5,5) rotate(-45)" style="text-anchor: end;">Wed 10</text>
                                </g>
                                <g class="tick" opacity="1" transform="translate(322.03846153846155,0)">
                                    <line stroke="currentColor" y2="6" stroke-opacity="0.5"/>
                                    <text fill="rgba(127, 127, 127, .8)" y="9" dy="0.71em" transform="translate(-5,5) rotate(-45)" style="text-anchor: end;">Thu 11</text>
                                </g>
                                <g class="tick" opacity="1" transform="translate(356.6538461538462,0)">
                                    <line stroke="currentColor" y2="6" stroke-opacity="0.5"/>
                                    <text fill="rgba(127, 127, 127, .8)" y="9" dy="0.71em" transform="translate(-5,5) rotate(-45)" style="text-anchor: end;">Fri 12</text>
                                </g>
                                <g class="tick" opacity="1" transform="translate(391.2692307692308,0)">
                                    <line stroke="currentColor" y2="6" stroke-opacity="0.5"/>
                                    <text fill="rgba(127, 127, 127, .8)" y="9" dy="0.71em" transform="translate(-5,5) rotate(-45)" style="text-anchor: end;">Sat 13</text>
                                </g>
                                <g class="tick" opacity="1" transform="translate(425.8846153846154,0)">
                                    <line stroke="currentColor" y2="6" stroke-opacity="0.5"/>
                                    <text fill="rgba(127, 127, 127, .8)" y="9" dy="0.71em" transform="translate(-5,5) rotate(-45)" style="text-anchor: end;">Jun 14</text>
                                </g>
                                <g class="tick" opacity="1" transform="translate(460.5,0)">
                                    <line stroke="currentColor" y2="6" stroke-opacity="0.5"/>
                                    <text fill="rgba(127, 127, 127, .8)" y="9" dy="0.71em" transform="translate(-5,5) rotate(-45)" style="text-anchor: end;">Mon 15</text>
                                </g>
                            </g>
                            <g transform="translate(10,10)" fill="none" font-size="10" font-family="sans-serif" text-anchor="start">
                                <g class="tick" opacity="1" transform="translate(0,26.804347826086946)">
                                    <line stroke="currentColor" x2="460" stroke-opacity="0.5" stroke-dasharray="2,2"/>
                                    <text fill="rgba(127, 127, 127, .8)" x="0" dy="-4">18,750</text>
                                </g>
                                <g class="tick" opacity="1" transform="translate(0,72.09420289855072)">
                                    <line stroke="currentColor" x2="460" stroke-opacity="0.5" stroke-dasharray="2,2"/>
                                    <text fill="rgba(127, 127, 127, .8)" x="0" dy="-4">18,700</text>
                                </g>
                                <g class="tick" opacity="1" transform="translate(0,117.3840579710145)">
                                    <line stroke="currentColor" x2="460" stroke-opacity="0.5" stroke-dasharray="2,2"/>
                                    <text fill="rgba(127, 127, 127, .8)" x="0" dy="-4">18,650</text>
                                </g>
                                <g class="tick" opacity="1" transform="translate(0,162.67391304347828)">
                                    <line stroke="currentColor" x2="460" stroke-opacity="0.5" stroke-dasharray="2,2"/>
                                    <text fill="rgba(127, 127, 127, .8)" x="0" dy="-4">18,600</text>
                                </g>
                                <g class="tick" opacity="1" transform="translate(0,207.963768115942)">
                                    <line stroke="currentColor" x2="460" stroke-opacity="0.5" stroke-dasharray="2,2"/>
                                    <text fill="rgba(127, 127, 127, .8)" x="0" dy="-4">18,550</text>
                                </g>
                                <g class="tick" opacity="1" transform="translate(0,253.2536231884058)">
                                    <line stroke="currentColor" x2="460" stroke-opacity="0.5" stroke-dasharray="2,2"/>
                                    <text fill="rgba(127, 127, 127, .8)" x="0" dy="-4">18,500</text>
                                </g>
                            </g>
                            <path transform="translate(10,10)" d="M10,260L44.615,219.239L79.231,193.877L113.846,163.08L148.462,141.341L183.077,125.036L217.692,111.449L252.308,92.428L286.923,74.312L321.538,61.63L356.154,43.514L390.769,37.174L425.385,19.964L460,10" fill="transparent" stroke="#87ceeb" stroke-width="2"/>
                            <path transform="translate(10,10)" d="M10,260L44.615,260L79.231,260L113.846,260L148.462,260L183.077,260L217.692,260L252.308,260L286.923,260L321.538,260L356.154,260L390.769,260L425.385,260L460,260L460,10L425.385,19.964L390.769,37.174L356.154,43.514L321.538,61.63L286.923,74.312L252.308,92.428L217.692,111.449L183.077,125.036L148.462,141.341L113.846,163.08L79.231,193.877L44.615,219.239L10,260Z" fill="rgba(88, 166, 255, .1)"/>
                            <g>
                                <circle transform="translate(10,10)" cx="10" cy="260" r="2" fill="#106cbc"/>
                                <circle transform="translate(10,10)" cx="44.61538461538462" cy="219.2391304347826" r="2" fill="#106cbc"/>
                                <circle transform="translate(10,10)" cx="79.23076923076924" cy="193.87681159420288" r="2" fill="#106cbc"/>
                                <circle transform="translate(10,10)" cx="113.84615384615385" cy="163.07971014492756" r="2" fill="#106cbc"/>
                                <circle transform="translate(10,10)" cx="148.46153846153848" cy="141.34057971014494" r="2" fill="#106cbc"/>
                                <circle transform="translate(10,10)" cx="183.0769230769231" cy="125.03623188405798" r="2" fill="#106cbc"/>
                                <circle transform="translate(10,10)" cx="217.6923076923077" cy="111.44927536231884" r="2" fill="#106cbc"/>
                                <circle transform="translate(10,10)" cx="252.3076923076923" cy="92.42753623188406" r="2" fill="#106cbc"/>
                                <circle transform="translate(10,10)" cx="286.92307692307696" cy="74.31159420289856" r="2" fill="#106cbc"/>
                                <circle transform="translate(10,10)" cx="321.53846153846155" cy="61.6304347826087" r="2" fill="#106cbc"/>
                                <circle transform="translate(10,10)" cx="356.1538461538462" cy="43.514492753623195" r="2" fill="#106cbc"/>
                                <circle transform="translate(10,10)" cx="390.7692307692308" cy="37.17391304347827" r="2" fill="#106cbc"/>
                                <circle transform="translate(10,10)" cx="425.3846153846154" cy="19.963768115942017" r="2" fill="#106cbc"/>
                                <circle transform="translate(10,10)" cx="460" cy="10" r="2" fill="#106cbc"/>
                            </g>
                            <g fill="currentColor" text-anchor="middle" font-family="sans-serif" font-size="10" stroke="rgba(88, 166, 255, .05)" stroke-linejoin="round" stroke-width="4" paint-order="stroke fill">
                                <text transform="translate(10,6)" x="10" y="260" fill="rgba(127, 127, 127, .8)">18.4k</text>
                                <text transform="translate(10,6)" x="44.61538461538462" y="219.2391304347826" fill="rgba(127, 127, 127, .8)">18.5k</text>
                                <text transform="translate(10,6)" x="79.23076923076924" y="193.87681159420288" fill="rgba(127, 127, 127, .8)">18.5k</text>
                                <text transform="translate(10,6)" x="113.84615384615385" y="163.07971014492756" fill="rgba(127, 127, 127, .8)">18.6k</text>
                                <text transform="translate(10,6)" x="148.46153846153848" y="141.34057971014494" fill="rgba(127, 127, 127, .8)">18.6k</text>
                                <text transform="translate(10,6)" x="183.0769230769231" y="125.03623188405798" fill="rgba(127, 127, 127, .8)">18.6k</text>
                                <text transform="translate(10,6)" x="217.6923076923077" y="111.44927536231884" fill="rgba(127, 127, 127, .8)">18.6k</text>
                                <text transform="translate(10,6)" x="252.3076923076923" y="92.42753623188406" fill="rgba(127, 127, 127, .8)">18.6k</text>
                                <text transform="translate(10,6)" x="286.92307692307696" y="74.31159420289856" fill="rgba(127, 127, 127, .8)">18.7k</text>
                                <text transform="translate(10,6)" x="321.53846153846155" y="61.6304347826087" fill="rgba(127, 127, 127, .8)">18.7k</text>
                                <text transform="translate(10,6)" x="356.1538461538462" y="43.514492753623195" fill="rgba(127, 127, 127, .8)">18.7k</text>
                                <text transform="translate(10,6)" x="390.7692307692308" y="37.17391304347827" fill="rgba(127, 127, 127, .8)">18.7k</text>
                                <text transform="translate(10,6)" x="425.3846153846154" y="19.963768115942017" fill="rgba(127, 127, 127, .8)">18.7k</text>
                                <text transform="translate(10,6)" x="460" y="10" fill="rgba(127, 127, 127, .8)">18.7k</text>
                            </g>
                        </svg>
                    </section>
                    <section class="column chart">
                        <h3>New stargazers per day</h3>
                        <svg xmlns="http://www.w3.org/2000/svg" width="480" height="315">
                            <g transform="translate(10,270)" fill="none" font-size="10" font-family="sans-serif" text-anchor="middle">
                                <path class="domain" stroke="rgba(127, 127, 127, .8)" d="M10.5,0.5H460.5"/>
                                <g class="tick" opacity="1" transform="translate(10.5,0)">
                                    <line stroke="currentColor" y2="6" stroke-opacity="0.5"/>
                                    <text fill="rgba(127, 127, 127, .8)" y="9" dy="0.71em" transform="translate(-5,5) rotate(-45)" style="text-anchor: end;">Tue 02</text>
                                </g>
                                <g class="tick" opacity="1" transform="translate(45.11538461538462,0)">
                                    <line stroke="currentColor" y2="6" stroke-opacity="0.5"/>
                                    <text fill="rgba(127, 127, 127, .8)" y="9" dy="0.71em" transform="translate(-5,5) rotate(-45)" style="text-anchor: end;">Wed 03</text>
                                </g>
                                <g class="tick" opacity="1" transform="translate(79.73076923076924,0)">
                                    <line stroke="currentColor" y2="6" stroke-opacity="0.5"/>
                                    <text fill="rgba(127, 127, 127, .8)" y="9" dy="0.71em" transform="translate(-5,5) rotate(-45)" style="text-anchor: end;">Thu 04</text>
                                </g>
                                <g class="tick" opacity="1" transform="translate(114.34615384615385,0)">
                                    <line stroke="currentColor" y2="6" stroke-opacity="0.5"/>
                                    <text fill="rgba(127, 127, 127, .8)" y="9" dy="0.71em" transform="translate(-5,5) rotate(-45)" style="text-anchor: end;">Fri 05</text>
                                </g>
                                <g class="tick" opacity="1" transform="translate(148.96153846153848,0)">
                                    <line stroke="currentColor" y2="6" stroke-opacity="0.5"/>
                                    <text fill="rgba(127, 127, 127, .8)" y="9" dy="0.71em" transform="translate(-5,5) rotate(-45)" style="text-anchor: end;">Sat 06</text>
                                </g>
                                <g class="tick" opacity="1" transform="translate(183.5769230769231,0)">
                                    <line stroke="currentColor" y2="6" stroke-opacity="0.5"/>
                                    <text fill="rgba(127, 127, 127, .8)" y="9" dy="0.71em" transform="translate(-5,5) rotate(-45)" style="text-anchor: end;">Jun 07</text>
                                </g>
                                <g class="tick" opacity="1" transform="translate(218.1923076923077,0)">
                                    <line stroke="currentColor" y2="6" stroke-opacity="0.5"/>
                                    <text fill="rgba(127, 127, 127, .8)" y="9" dy="0.71em" transform="translate(-5,5) rotate(-45)" style="text-anchor: end;">Mon 08</text>
                                </g>
                                <g class="tick" opacity="1" transform="translate(252.8076923076923,0)">
                                    <line stroke="currentColor" y2="6" stroke-opacity="0.5"/>
                                    <text fill="rgba(127, 127, 127, .8)" y="9" dy="0.71em" transform="translate(-5,5) rotate(-45)" style="text-anchor: end;">Tue 09</text>
                                </g>
                                <g class="tick" opacity="1" transform="translate(287.42307692307696,0)">
                                    <line stroke="currentColor" y2="6" stroke-opacity="0.5"/>
                                    <text fill="rgba(127, 127, 127, .8)" y="9" dy="0.71em" transform="translate(-5,5) rotate(-45)" style="text-anchor: end;">Wed 10</text>
                                </g>
                                <g class="tick" opacity="1" transform="translate(322.03846153846155,0)">
                                    <line stroke="currentColor" y2="6" stroke-opacity="0.5"/>
                                    <text fill="rgba(127, 127, 127, .8)" y="9" dy="0.71em" transform="translate(-5,5) rotate(-45)" style="text-anchor: end;">Thu 11</text>
                                </g>
                                <g class="tick" opacity="1" transform="translate(356.6538461538462,0)">
                                    <line stroke="currentColor" y2="6" stroke-opacity="0.5"/>
                                    <text fill="rgba(127, 127, 127, .8)" y="9" dy="0.71em" transform="translate(-5,5) rotate(-45)" style="text-anchor: end;">Fri 12</text>
                                </g>
                                <g class="tick" opacity="1" transform="translate(391.2692307692308,0)">
                                    <line stroke="currentColor" y2="6" stroke-opacity="0.5"/>
                                    <text fill="rgba(127, 127, 127, .8)" y="9" dy="0.71em" transform="translate(-5,5) rotate(-45)" style="text-anchor: end;">Sat 13</text>
                                </g>
                                <g class="tick" opacity="1" transform="translate(425.8846153846154,0)">
                                    <line stroke="currentColor" y2="6" stroke-opacity="0.5"/>
                                    <text fill="rgba(127, 127, 127, .8)" y="9" dy="0.71em" transform="translate(-5,5) rotate(-45)" style="text-anchor: end;">Jun 14</text>
                                </g>
                                <g class="tick" opacity="1" transform="translate(460.5,0)">
                                    <line stroke="currentColor" y2="6" stroke-opacity="0.5"/>
                                    <text fill="rgba(127, 127, 127, .8)" y="9" dy="0.71em" transform="translate(-5,5) rotate(-45)" style="text-anchor: end;">Mon 15</text>
                                </g>
                            </g>
                            <g transform="translate(10,10)" fill="none" font-size="10" font-family="sans-serif" text-anchor="start">
                                <g class="tick" opacity="1" transform="translate(0,38.277777777777786)">
                                    <line stroke="currentColor" x2="460" stroke-opacity="0.5" stroke-dasharray="2,2"/>
                                    <text fill="rgba(127, 127, 127, .8)" x="0" dy="-4">40</text>
                                </g>
                                <g class="tick" opacity="1" transform="translate(0,93.83333333333334)">
                                    <line stroke="currentColor" x2="460" stroke-opacity="0.5" stroke-dasharray="2,2"/>
                                    <text fill="rgba(127, 127, 127, .8)" x="0" dy="-4">30</text>
                                </g>
                                <g class="tick" opacity="1" transform="translate(0,149.3888888888889)">
                                    <line stroke="currentColor" x2="460" stroke-opacity="0.5" stroke-dasharray="2,2"/>
                                    <text fill="rgba(127, 127, 127, .8)" x="0" dy="-4">20</text>
                                </g>
                                <g class="tick" opacity="1" transform="translate(0,204.94444444444446)">
                                    <line stroke="currentColor" x2="460" stroke-opacity="0.5" stroke-dasharray="2,2"/>
                                    <text fill="rgba(127, 127, 127, .8)" x="0" dy="-4">10</text>
                                </g>
                                <g class="tick" opacity="1" transform="translate(0,260.5)">
                                    <line stroke="currentColor" x2="460" stroke-opacity="0.5" stroke-dasharray="2,2"/>
                                    <text fill="rgba(127, 127, 127, .8)" x="0" dy="-4">0</text>
                                </g>
                            </g>
                            <path transform="translate(10,10)" d="M10,137.778L44.615,10L79.231,104.444L113.846,71.111L148.462,126.667L183.077,160L217.692,176.667L252.308,143.333L286.923,148.889L321.538,182.222L356.154,148.889L390.769,221.111L425.385,154.444L460,198.889" fill="transparent" stroke="#87ceeb" stroke-width="2"/>
                            <path transform="translate(10,10)" d="M10,260L44.615,260L79.231,260L113.846,260L148.462,260L183.077,260L217.692,260L252.308,260L286.923,260L321.538,260L356.154,260L390.769,260L425.385,260L460,260L460,198.889L425.385,154.444L390.769,221.111L356.154,148.889L321.538,182.222L286.923,148.889L252.308,143.333L217.692,176.667L183.077,160L148.462,126.667L113.846,71.111L79.231,104.444L44.615,10L10,137.778Z" fill="rgba(88, 166, 255, .1)"/>
                            <g>
                                <circle transform="translate(10,10)" cx="10" cy="137.77777777777777" r="2" fill="#106cbc"/>
                                <circle transform="translate(10,10)" cx="44.61538461538462" cy="10" r="2" fill="#106cbc"/>
                                <circle transform="translate(10,10)" cx="79.23076923076924" cy="104.44444444444444" r="2" fill="#106cbc"/>
                                <circle transform="translate(10,10)" cx="113.84615384615385" cy="71.11111111111111" r="2" fill="#106cbc"/>
                                <circle transform="translate(10,10)" cx="148.46153846153848" cy="126.66666666666666" r="2" fill="#106cbc"/>
                                <circle transform="translate(10,10)" cx="183.0769230769231" cy="160" r="2" fill="#106cbc"/>
                                <circle transform="translate(10,10)" cx="217.6923076923077" cy="176.66666666666669" r="2" fill="#106cbc"/>
                                <circle transform="translate(10,10)" cx="252.3076923076923" cy="143.33333333333331" r="2" fill="#106cbc"/>
                                <circle transform="translate(10,10)" cx="286.92307692307696" cy="148.8888888888889" r="2" fill="#106cbc"/>
                                <circle transform="translate(10,10)" cx="321.53846153846155" cy="182.22222222222223" r="2" fill="#106cbc"/>
                                <circle transform="translate(10,10)" cx="356.1538461538462" cy="148.8888888888889" r="2" fill="#106cbc"/>
                                <circle transform="translate(10,10)" cx="390.7692307692308" cy="221.1111111111111" r="2" fill="#106cbc"/>
                                <circle transform="translate(10,10)" cx="425.3846153846154" cy="154.44444444444443" r="2" fill="#106cbc"/>
                                <circle transform="translate(10,10)" cx="460" cy="198.88888888888889" r="2" fill="#106cbc"/>
                            </g>
                            <g fill="currentColor" text-anchor="middle" font-family="sans-serif" font-size="10" stroke="rgba(88, 166, 255, .05)" stroke-linejoin="round" stroke-width="4" paint-order="stroke fill">
                                <text transform="translate(10,6)" x="10" y="137.77777777777777" fill="rgba(127, 127, 127, .8)">+22</text>
                                <text transform="translate(10,6)" x="44.61538461538462" y="10" fill="rgba(127, 127, 127, .8)">+45</text>
                                <text transform="translate(10,6)" x="79.23076923076924" y="104.44444444444444" fill="rgba(127, 127, 127, .8)">+28</text>
                                <text transform="translate(10,6)" x="113.84615384615385" y="71.11111111111111" fill="rgba(127, 127, 127, .8)">+34</text>
                                <text transform="translate(10,6)" x="148.46153846153848" y="126.66666666666666" fill="rgba(127, 127, 127, .8)">+24</text>
                                <text transform="translate(10,6)" x="183.0769230769231" y="160" fill="rgba(127, 127, 127, .8)">+18</text>
                                <text transform="translate(10,6)" x="217.6923076923077" y="176.66666666666669" fill="rgba(127, 127, 127, .8)">+15</text>
                                <text transform="translate(10,6)" x="252.3076923076923" y="143.33333333333331" fill="rgba(127, 127, 127, .8)">+21</text>
                                <text transform="translate(10,6)" x="286.92307692307696" y="148.8888888888889" fill="rgba(127, 127, 127, .8)">+20</text>
                                <text transform="translate(10,6)" x="321.53846153846155" y="182.22222222222223" fill="rgba(127, 127, 127, .8)">+14</text>
                                <text transform="translate(10,6)" x="356.1538461538462" y="148.8888888888889" fill="rgba(127, 127, 127, .8)">+20</text>
                                <text transform="translate(10,6)" x="390.7692307692308" y="221.1111111111111" fill="rgba(127, 127, 127, .8)">+7</text>
                                <text transform="translate(10,6)" x="425.3846153846154" y="154.44444444444443" fill="rgba(127, 127, 127, .8)">+19</text>
                                <text transform="translate(10,6)" x="460" y="198.88888888888889" fill="rgba(127, 127, 127, .8)">+11</text>
                            </g>
                        </svg>
                    </section>
                </div>
            </section>
        </div>
        <div xmlns="http://www.w3.org/1999/xhtml" id="metrics-end"></div>
    </foreignObject>
</svg>