<svg xmlns="http://www.w3.org/2000/svg" width="480" height="814" class="">
    <defs>
        <style/>
    </defs>
    <style>@keyframes animation-gauge{0%{stroke-dasharray:0 329}}@keyframes animation-rainbow{0%,to{color:#7f00ff;fill:#7f00ff}14%{color:#a933ff;fill:#a933ff}29%{color:#007fff;fill:#007fff}43%{color:#00ff7f;fill:#00ff7f}57%{color:#ff0;fill:#ff0}71%{color:#ff7f00;fill:#ff7f00}86%{color:red;fill:red}}svg{font-family:-apple-system,BlinkMacSystemFont,Segoe UI,Helvetica,Arial,sans-serif,Apple Color Emoji,Segoe UI Emoji;color:#777}h2,h3{margin:8px 0 2px;padding:0;color:#0366d6;font-weight:400}h2 svg,h3 svg{fill:currentColor}h2{font-size:16px}h3,svg{font-size:14px}section&gt;.field{margin-left:5px;margin-right:5px}.field{display:flex;align-items:center;margin-bottom:2px;white-space:nowrap}.field svg{margin:0 8px;fill:#959da5;flex-shrink:0}.row{display:flex;flex-wrap:wrap}.row section{flex:1 1 0}.column{display:flex;flex-direction:column;align-items:center}.margin-bottom{margin-bottom:16px}.chart{padding:0 8px}:root{--color-calendar-graph-day-bg:#ebedf0;--color-calendar-graph-day-border:rgba(27,31,35,0.06);--color-calendar-graph-day-L1-bg:#9be9a8;--color-calendar-graph-day-L2-bg:#40c463;--color-calendar-graph-day-L3-bg:#30a14e;--color-calendar-graph-day-L4-bg:#216e39;--color-calendar-halloween-graph-day-L1-bg:#ffee4a;--color-calendar-halloween-graph-day-L2-bg:#ffc501;--color-calendar-halloween-graph-day-L3-bg:#fe9600;--color-calendar-halloween-graph-day-L4-bg:#03001c;--color-calendar-winter-graph-day-L1-bg:#0a3069;--color-calendar-winter-graph-day-L2-bg:#0969da;--color-calendar-winter-graph-day-L3-bg:#54aeff;--color-calendar-winter-graph-day-L4-bg:#b6e3ff;--color-calendar-graph-day-L4-border:rgba(27,31,35,0.06);--color-calendar-graph-day-L3-border:rgba(27,31,35,0.06);--color-calendar-graph-day-L2-border:rgba(27,31,35,0.06);--color-calendar-graph-day-L1-border:rgba(27,31,35,0.06)}#metrics-end{width:100%}</style>
    <style/>
    <foreignObject x="0" y="0" width="100%" height="100%">
        <div xmlns="http://www.w3.org/1999/xhtml" xmlns:xlink="http://www.w3.org/1999/xlink">
            <section class="stargazers">
                <h2 class="field">
                    <svg xmlns="http://www.w3.org/2000/svg" viewBox="0 0 16 16" width="16" height="16">
                        <path fill-rule="evenodd" d="M8 .25a.75.75 0 01.673.418l1.882 3.815 4.21.612a.75.75 0 01.416 1.279l-3.046 2.97.719 4.192a.75.75 0 01-1.088.791L8 12.347l-3.766 1.98a.75.75 0 01-1.088-.79l.72-4.194L.818 6.374a.75.75 0 01.416-1.28l4.21-.611L7.327.668A.75.75 0 018 .25zm0 2.445L6.615 5.5a.75.75 0 01-.564.41l-3.097.45 2.24 2.184a.75.75 0 01.216.664l-.528 3.084 2.769-1.456a.75.75 0 01.698 0l2.77 1.456-.53-3.084a.75.75 0 01.216-.664l2.24-2.183-3.096-.45a.75.75 0 01-.564-.41L8 2.694v.001z"/>
                    </svg>
                    Stargazers
                </h2>
                <div class="row margin-bottom">
                    <section class="column chart">
                        <h3>Total stargazers</h3>
                        <svg xmlns="http://www.w3.org/2000/svg" width="480" height="315">
                            <g transform="translate(10,270)" fill="none" font-size="10" font-family="sans-serif" text-anchor="middle">
                                <path class="domain" stroke="rgba(127, 127, 127, .8)" d="M10.5,0.5H460.5"/>
                                <g class="tick" opacity="1" transform="translate(10.5,0)">
                                    <line stroke="currentColor" y2="6" stroke-opacity="0.5"/>
                                    <text fill="rgba(127, 127, 127, .8)" y="9" dy="0.71em" transform="translate(-5,5) rotate(-45)" style="text-anchor: end;">Apr 12</text>
                                </g>
                                <g class="tick" opacity="1" transform="translate(45.11538461538462,0)">
                                    <line stroke="currentColor" y2="6" stroke-opacity="0.5"/>
                                    <text fill="rgba(127, 127, 127, .8)" y="9" dy="0.71em" transform="translate(-5,5) rotate(-45)" style="text-anchor: end;">Mon 13</text>
                                </g>
                                <g class="tick" opacity="1" transform="translate(79.73076923076924,0)">
                                    <line stroke="currentColor" y2="6" stroke-opacity="0.5"/>
                                    <text fill="rgba(127, 127, 127, .8)" y="9" dy="0.71em" transform="translate(-5,5) rotate(-45)" style="text-anchor: end;">Tue 14</text>
                                </g>
                                <g class="tick" opacity="1" transform="translate(114.34615384615385,0)">
                                    <line stroke="currentColor" y2="6" stroke-opacity="0.5"/>
                                    <text fill="rgba(127, 127, 127, .8)" y="9" dy="0.71em" transform="translate(-5,5) rotate(-45)" style="text-anchor: end;">Wed 15</text>
                                </g>
                                <g class="tick" opacity="1" transform="translate(148.96153846153848,0)">
                                    <line stroke="currentColor" y2="6" stroke-opacity="0.5"/>
                                    <text fill="rgba(127, 127, 127, .8)" y="9" dy="0.71em" transform="translate(-5,5) rotate(-45)" style="text-anchor: end;">Thu 16</text>
                                </g>
                                <g class="tick" opacity="1" transform="translate(183.5769230769231,0)">
                                    <line stroke="currentColor" y2="6" stroke-opacity="0.5"/>
                                    <text fill="rgba(127, 127, 127, .8)" y="9" dy="0.71em" transform="translate(-5,5) rotate(-45)" style="text-anchor: end;">Fri 17</text>
                                </g>
                                <g class="tick" opacity="1" transform="translate(218.1923076923077,0)">
                                    <line stroke="currentColor" y2="6" stroke-opacity="0.5"/>
                                    <text fill="rgba(127, 127, 127, .8)" y="9" dy="0.71em" transform="translate(-5,5) rotate(-45)" style="text-anchor: end;">Sat 18</text>
                                </g>
                                <g class="tick" opacity="1" transform="translate(252.8076923076923,0)">
                                    <line stroke="currentColor" y2="6" stroke-opacity="0.5"/>
                                    <text fill="rgba(127, 127, 127, .8)" y="9" dy="0.71em" transform="translate(-5,5) rotate(-45)" style="text-anchor: end;">Apr 19</text>
                                </g>
                                <g class="tick" opacity="1" transform="translate(287.42307692307696,0)">
                                    <line stroke="currentColor" y2="6" stroke-opacity="0.5"/>
                                    <text fill="rgba(127, 127, 127, .8)" y="9" dy="0.71em" transform="translate(-5,5) rotate(-45)" style="text-anchor: end;">Mon 20</text>
                                </g>
                                <g class="tick" opacity="1" transform="translate(322.03846153846155,0)">
                                    <line stroke="currentColor" y2="6" stroke-opacity="0.5"/>
                                    <text fill="rgba(127, 127, 127, .8)" y="9" dy="0.71em" transform="translate(-5,5) rotate(-45)" style="text-anchor: end;">Tue 21</text>
                                </g>
                                <g class="tick" opacity="1" transform="translate(356.6538461538462,0)">
                                    <line stroke="currentColor" y2="6" stroke-opacity="0.5"/>
                                    <text fill="rgba(127, 127, 127, .8)" y="9" dy="0.71em" transform="translate(-5,5) rotate(-45)" style="text-anchor: end;">Wed 22</text>
                                </g>
                                <g class="tick" opacity="1" transform="translate(391.2692307692308,0)">
                                    <line stroke="currentColor" y2="6" stroke-opacity="0.5"/>
                                    <text fill="rgba(127, 127, 127, .8)" y="9" dy="0.71em" transform="translate(-5,5) rotate(-45)" style="text-anchor: end;">Thu 23</text>
                                </g>
                                <g class="tick" opacity="1" transform="translate(425.8846153846154,0)">
                                    <line stroke="currentColor" y2="6" stroke-opacity="0.5"/>
                                    <text fill="rgba(127, 127, 127, .8)" y="9" dy="0.71em" transform="translate(-5,5) rotate(-45)" style="text-anchor: end;">Fri 24</text>
                                </g>
                                <g class="tick" opacity="1" transform="translate(460.5,0)">
                                    <line stroke="currentColor" y2="6" stroke-opacity="0.5"/>
                                    <text fill="rgba(127, 127, 127, .8)" y="9" dy="0.71em" transform="translate(-5,5) rotate(-45)" style="text-anchor: end;">Sat 25</text>
                                </g>
                            </g>
                            <g transform="translate(10,10)" fill="none" font-size="10" font-family="sans-serif" text-anchor="start">
                                <g class="tick" opacity="1" transform="translate(0,40.5632911392405)">
                                    <line stroke="currentColor" x2="460" stroke-opacity="0.5" stroke-dasharray="2,2"/>
                                    <text fill="rgba(127, 127, 127, .8)" x="0" dy="-4">17,760</text>
                                </g>
                                <g class="tick" opacity="1" transform="translate(0,72.20886075949366)">
                                    <line stroke="currentColor" x2="460" stroke-opacity="0.5" stroke-dasharray="2,2"/>
                                    <text fill="rgba(127, 127, 127, .8)" x="0" dy="-4">17,740</text>
                                </g>
                                <g class="tick" opacity="1" transform="translate(0,103.85443037974683)">
                                    <line stroke="currentColor" x2="460" stroke-opacity="0.5" stroke-dasharray="2,2"/>
                                    <text fill="rgba(127, 127, 127, .8)" x="0" dy="-4">17,720</text>
                                </g>
                                <g class="tick" opacity="1" transform="translate(0,135.5)">
                                    <line stroke="currentColor" x2="460" stroke-opacity="0.5" stroke-dasharray="2,2"/>
                                    <text fill="rgba(127, 127, 127, .8)" x="0" dy="-4">17,700</text>
                                </g>
                                <g class="tick" opacity="1" transform="translate(0,167.14556962025316)">
                                    <line stroke="currentColor" x2="460" stroke-opacity="0.5" stroke-dasharray="2,2"/>
                                    <text fill="rgba(127, 127, 127, .8)" x="0" dy="-4">17,680</text>
                                </g>
                                <g class="tick" opacity="1" transform="translate(0,198.79113924050634)">
                                    <line stroke="currentColor" x2="460" stroke-opacity="0.5" stroke-dasharray="2,2"/>
                                    <text fill="rgba(127, 127, 127, .8)" x="0" dy="-4">17,660</text>
                                </g>
                                <g class="tick" opacity="1" transform="translate(0,230.4367088607595)">
                                    <line stroke="currentColor" x2="460" stroke-opacity="0.5" stroke-dasharray="2,2"/>
                                    <text fill="rgba(127, 127, 127, .8)" x="0" dy="-4">17,640</text>
                                </g>
                            </g>
                            <path transform="translate(10,10)" d="M10,260L44.615,247.342L79.231,222.025L113.846,204.62L148.462,187.215L183.077,163.481L217.692,138.165L252.308,116.013L286.923,98.608L321.538,79.62L356.154,59.051L390.769,28.987L425.385,11.582L460,10" fill="transparent" stroke="#87ceeb" stroke-width="2"/>
                            <path transform="translate(10,10)" d="M10,260L44.615,260L79.231,260L113.846,260L148.462,260L183.077,260L217.692,260L252.308,260L286.923,260L321.538,260L356.154,260L390.769,260L425.385,260L460,260L460,10L425.385,11.582L390.769,28.987L356.154,59.051L321.538,79.62L286.923,98.608L252.308,116.013L217.692,138.165L183.077,163.481L148.462,187.215L113.846,204.62L79.231,222.025L44.615,247.342L10,260Z" fill="rgba(88, 166, 255, .1)"/>
                            <g>
                                <circle transform="translate(10,10)" cx="10" cy="260" r="2" fill="#106cbc"/>
                                <circle transform="translate(10,10)" cx="44.61538461538462" cy="247.3417721518987" r="2" fill="#106cbc"/>
                                <circle transform="translate(10,10)" cx="79.23076923076924" cy="222.02531645569618" r="2" fill="#106cbc"/>
                                <circle transform="translate(10,10)" cx="113.84615384615385" cy="204.62025316455697" r="2" fill="#106cbc"/>
                                <circle transform="translate(10,10)" cx="148.46153846153848" cy="187.2151898734177" r="2" fill="#106cbc"/>
                                <circle transform="translate(10,10)" cx="183.0769230769231" cy="163.48101265822783" r="2" fill="#106cbc"/>
                                <circle transform="translate(10,10)" cx="217.6923076923077" cy="138.16455696202533" r="2" fill="#106cbc"/>
                                <circle transform="translate(10,10)" cx="252.3076923076923" cy="116.0126582278481" r="2" fill="#106cbc"/>
                                <circle transform="translate(10,10)" cx="286.92307692307696" cy="98.60759493670885" r="2" fill="#106cbc"/>
                                <circle transform="translate(10,10)" cx="321.53846153846155" cy="79.62025316455697" r="2" fill="#106cbc"/>
                                <circle transform="translate(10,10)" cx="356.1538461538462" cy="59.05063291139242" r="2" fill="#106cbc"/>
                                <circle transform="translate(10,10)" cx="390.7692307692308" cy="28.98734177215189" r="2" fill="#106cbc"/>
                                <circle transform="translate(10,10)" cx="425.3846153846154" cy="11.582278481012667" r="2" fill="#106cbc"/>
                                <circle transform="translate(10,10)" cx="460" cy="10" r="2" fill="#106cbc"/>
                            </g>
                            <g fill="currentColor" text-anchor="middle" font-family="sans-serif" font-size="10" stroke="rgba(88, 166, 255, .05)" stroke-linejoin="round" stroke-width="4" paint-order="stroke fill">
                                <text transform="translate(10,6)" x="10" y="260" fill="rgba(127, 127, 127, .8)">17.6k</text>
                                <text transform="translate(10,6)" x="44.61538461538462" y="247.3417721518987" fill="rgba(127, 127, 127, .8)">17.6k</text>
                                <text transform="translate(10,6)" x="79.23076923076924" y="222.02531645569618" fill="rgba(127, 127, 127, .8)">17.6k</text>
                                <text transform="translate(10,6)" x="113.84615384615385" y="204.62025316455697" fill="rgba(127, 127, 127, .8)">17.6k</text>
                                <text transform="translate(10,6)" x="148.46153846153848" y="187.2151898734177" fill="rgba(127, 127, 127, .8)">17.6k</text>
                                <text transform="translate(10,6)" x="183.0769230769231" y="163.48101265822783" fill="rgba(127, 127, 127, .8)">17.6k</text>
                                <text transform="translate(10,6)" x="217.6923076923077" y="138.16455696202533" fill="rgba(127, 127, 127, .8)">17.7k</text>
                                <text transform="translate(10,6)" x="252.3076923076923" y="116.0126582278481" fill="rgba(127, 127, 127, .8)">17.7k</text>
                                <text transform="translate(10,6)" x="286.92307692307696" y="98.60759493670885" fill="rgba(127, 127, 127, .8)">17.7k</text>
                                <text transform="translate(10,6)" x="321.53846153846155" y="79.62025316455697" fill="rgba(127, 127, 127, .8)">17.7k</text>
                                <text transform="translate(10,6)" x="356.1538461538462" y="59.05063291139242" fill="rgba(127, 127, 127, .8)">17.7k</text>
                                <text transform="translate(10,6)" x="390.7692307692308" y="28.98734177215189" fill="rgba(127, 127, 127, .8)">17.7k</text>
                                <text transform="translate(10,6)" x="425.3846153846154" y="11.582278481012667" fill="rgba(127, 127, 127, .8)">17.7k</text>
                                <text transform="translate(10,6)" x="460" y="10" fill="rgba(127, 127, 127, .8)">17.7k</text>
                            </g>
                        </svg>
                    </section>
                    <section class="column chart">
                        <h3>New stargazers per day</h3>
                        <svg xmlns="http://www.w3.org/2000/svg" width="480" height="315">
                            <g transform="translate(10,270)" fill="none" font-size="10" font-family="sans-serif" text-anchor="middle">
                                <path class="domain" stroke="rgba(127, 127, 127, .8)" d="M10.5,0.5H460.5"/>
                                <g class="tick" opacity="1" transform="translate(10.5,0)">
                                    <line stroke="currentColor" y2="6" stroke-opacity="0.5"/>
                                    <text fill="rgba(127, 127, 127, .8)" y="9" dy="0.71em" transform="translate(-5,5) rotate(-45)" style="text-anchor: end;">Apr 12</text>
                                </g>
                                <g class="tick" opacity="1" transform="translate(45.11538461538462,0)">
                                    <line stroke="currentColor" y2="6" stroke-opacity="0.5"/>
                                    <text fill="rgba(127, 127, 127, .8)" y="9" dy="0.71em" transform="translate(-5,5) rotate(-45)" style="text-anchor: end;">Mon 13</text>
                                </g>
                                <g class="tick" opacity="1" transform="translate(79.73076923076924,0)">
                                    <line stroke="currentColor" y2="6" stroke-opacity="0.5"/>
                                    <text fill="rgba(127, 127, 127, .8)" y="9" dy="0.71em" transform="translate(-5,5) rotate(-45)" style="text-anchor: end;">Tue 14</text>
                                </g>
                                <g class="tick" opacity="1" transform="translate(114.34615384615385,0)">
                                    <line stroke="currentColor" y2="6" stroke-opacity="0.5"/>
                                    <text fill="rgba(127, 127, 127, .8)" y="9" dy="0.71em" transform="translate(-5,5) rotate(-45)" style="text-anchor: end;">Wed 15</text>
                                </g>
                                <g class="tick" opacity="1" transform="translate(148.96153846153848,0)">
                                    <line stroke="currentColor" y2="6" stroke-opacity="0.5"/>
                                    <text fill="rgba(127, 127, 127, .8)" y="9" dy="0.71em" transform="translate(-5,5) rotate(-45)" style="text-anchor: end;">Thu 16</text>
                                </g>
                                <g class="tick" opacity="1" transform="translate(183.5769230769231,0)">
                                    <line stroke="currentColor" y2="6" stroke-opacity="0.5"/>
                                    <text fill="rgba(127, 127, 127, .8)" y="9" dy="0.71em" transform="translate(-5,5) rotate(-45)" style="text-anchor: end;">Fri 17</text>
                                </g>
                                <g class="tick" opacity="1" transform="translate(218.1923076923077,0)">
                                    <line stroke="currentColor" y2="6" stroke-opacity="0.5"/>
                                    <text fill="rgba(127, 127, 127, .8)" y="9" dy="0.71em" transform="translate(-5,5) rotate(-45)" style="text-anchor: end;">Sat 18</text>
                                </g>
                                <g class="tick" opacity="1" transform="translate(252.8076923076923,0)">
                                    <line stroke="currentColor" y2="6" stroke-opacity="0.5"/>
                                    <text fill="rgba(127, 127, 127, .8)" y="9" dy="0.71em" transform="translate(-5,5) rotate(-45)" style="text-anchor: end;">Apr 19</text>
                                </g>
                                <g class="tick" opacity="1" transform="translate(287.42307692307696,0)">
                                    <line stroke="currentColor" y2="6" stroke-opacity="0.5"/>
                                    <text fill="rgba(127, 127, 127, .8)" y="9" dy="0.71em" transform="translate(-5,5) rotate(-45)" style="text-anchor: end;">Mon 20</text>
                                </g>
                                <g class="tick" opacity="1" transform="translate(322.03846153846155,0)">
                                    <line stroke="currentColor" y2="6" stroke-opacity="0.5"/>
                                    <text fill="rgba(127, 127, 127, .8)" y="9" dy="0.71em" transform="translate(-5,5) rotate(-45)" style="text-anchor: end;">Tue 21</text>
                                </g>
                                <g class="tick" opacity="1" transform="translate(356.6538461538462,0)">
                                    <line stroke="currentColor" y2="6" stroke-opacity="0.5"/>
                                    <text fill="rgba(127, 127, 127, .8)" y="9" dy="0.71em" transform="translate(-5,5) rotate(-45)" style="text-anchor: end;">Wed 22</text>
                                </g>
                                <g class="tick" opacity="1" transform="translate(391.2692307692308,0)">
                                    <line stroke="currentColor" y2="6" stroke-opacity="0.5"/>
                                    <text fill="rgba(127, 127, 127, .8)" y="9" dy="0.71em" transform="translate(-5,5) rotate(-45)" style="text-anchor: end;">Thu 23</text>
                                </g>
                                <g class="tick" opacity="1" transform="translate(425.8846153846154,0)">
                                    <line stroke="currentColor" y2="6" stroke-opacity="0.5"/>
                                    <text fill="rgba(127, 127, 127, .8)" y="9" dy="0.71em" transform="translate(-5,5) rotate(-45)" style="text-anchor: end;">Fri 24</text>
                                </g>
                                <g class="tick" opacity="1" transform="translate(460.5,0)">
                                    <line stroke="currentColor" y2="6" stroke-opacity="0.5"/>
                                    <text fill="rgba(127, 127, 127, .8)" y="9" dy="0.71em" transform="translate(-5,5) rotate(-45)" style="text-anchor: end;">Sat 25</text>
                                </g>
                            </g>
                            <g transform="translate(10,10)" fill="none" font-size="10" font-family="sans-serif" text-anchor="start">
                                <g class="tick" opacity="1" transform="translate(0,63.131578947368425)">
                                    <line stroke="currentColor" x2="460" stroke-opacity="0.5" stroke-dasharray="2,2"/>
                                    <text fill="rgba(127, 127, 127, .8)" x="0" dy="-4">15</text>
                                </g>
                                <g class="tick" opacity="1" transform="translate(0,128.92105263157896)">
                                    <line stroke="currentColor" x2="460" stroke-opacity="0.5" stroke-dasharray="2,2"/>
                                    <text fill="rgba(127, 127, 127, .8)" x="0" dy="-4">10</text>
                                </g>
                                <g class="tick" opacity="1" transform="translate(0,194.71052631578948)">
                                    <line stroke="currentColor" x2="460" stroke-opacity="0.5" stroke-dasharray="2,2"/>
                                    <text fill="rgba(127, 127, 127, .8)" x="0" dy="-4">5</text>
                                </g>
                                <g class="tick" opacity="1" transform="translate(0,260.5)">
                                    <line stroke="currentColor" x2="460" stroke-opacity="0.5" stroke-dasharray="2,2"/>
                                    <text fill="rgba(127, 127, 127, .8)" x="0" dy="-4">0</text>
                                </g>
                            </g>
                            <path transform="translate(10,10)" d="M10,62.632L44.615,154.737L79.231,49.474L113.846,115.263L148.462,115.263L183.077,62.632L217.692,49.474L252.308,75.789L286.923,115.263L321.538,102.105L356.154,88.947L390.769,10L425.385,115.263L460,246.842" fill="transparent" stroke="#87ceeb" stroke-width="2"/>
                            <path transform="translate(10,10)" d="M10,260L44.615,260L79.231,260L113.846,260L148.462,260L183.077,260L217.692,260L252.308,260L286.923,260L321.538,260L356.154,260L390.769,260L425.385,260L460,260L460,246.842L425.385,115.263L390.769,10L356.154,88.947L321.538,102.105L286.923,115.263L252.308,75.789L217.692,49.474L183.077,62.632L148.462,115.263L113.846,115.263L79.231,49.474L44.615,154.737L10,62.632Z" fill="rgba(88, 166, 255, .1)"/>
                            <g>
                                <circle transform="translate(10,10)" cx="10" cy="62.631578947368425" r="2" fill="#106cbc"/>
                                <circle transform="translate(10,10)" cx="44.61538461538462" cy="154.73684210526318" r="2" fill="#106cbc"/>
                                <circle transform="translate(10,10)" cx="79.23076923076924" cy="49.47368421052633" r="2" fill="#106cbc"/>
                                <circle transform="translate(10,10)" cx="113.84615384615385" cy="115.26315789473684" r="2" fill="#106cbc"/>
                                <circle transform="translate(10,10)" cx="148.46153846153848" cy="115.26315789473684" r="2" fill="#106cbc"/>
                                <circle transform="translate(10,10)" cx="183.0769230769231" cy="62.631578947368425" r="2" fill="#106cbc"/>
                                <circle transform="translate(10,10)" cx="217.6923076923077" cy="49.47368421052633" r="2" fill="#106cbc"/>
                                <circle transform="translate(10,10)" cx="252.3076923076923" cy="75.78947368421053" r="2" fill="#106cbc"/>
                                <circle transform="translate(10,10)" cx="286.92307692307696" cy="115.26315789473684" r="2" fill="#106cbc"/>
                                <circle transform="translate(10,10)" cx="321.53846153846155" cy="102.10526315789474" r="2" fill="#106cbc"/>
                                <circle transform="translate(10,10)" cx="356.1538461538462" cy="88.94736842105262" r="2" fill="#106cbc"/>
                                <circle transform="translate(10,10)" cx="390.7692307692308" cy="10" r="2" fill="#106cbc"/>
                                <circle transform="translate(10,10)" cx="425.3846153846154" cy="115.26315789473684" r="2" fill="#106cbc"/>
                                <circle transform="translate(10,10)" cx="460" cy="246.8421052631579" r="2" fill="#106cbc"/>
                            </g>
                            <g fill="currentColor" text-anchor="middle" font-family="sans-serif" font-size="10" stroke="rgba(88, 166, 255, .05)" stroke-linejoin="round" stroke-width="4" paint-order="stroke fill">
                                <text transform="translate(10,6)" x="10" y="62.631578947368425" fill="rgba(127, 127, 127, .8)">+15</text>
                                <text transform="translate(10,6)" x="44.61538461538462" y="154.73684210526318" fill="rgba(127, 127, 127, .8)">+8</text>
                                <text transform="translate(10,6)" x="79.23076923076924" y="49.47368421052633" fill="rgba(127, 127, 127, .8)">+16</text>
                                <text transform="translate(10,6)" x="113.84615384615385" y="115.26315789473684" fill="rgba(127, 127, 127, .8)">+11</text>
                                <text transform="translate(10,6)" x="148.46153846153848" y="115.26315789473684" fill="rgba(127, 127, 127, .8)">+11</text>
                                <text transform="translate(10,6)" x="183.0769230769231" y="62.631578947368425" fill="rgba(127, 127, 127, .8)">+15</text>
                                <text transform="translate(10,6)" x="217.6923076923077" y="49.47368421052633" fill="rgba(127, 127, 127, .8)">+16</text>
                                <text transform="translate(10,6)" x="252.3076923076923" y="75.78947368421053" fill="rgba(127, 127, 127, .8)">+14</text>
                                <text transform="translate(10,6)" x="286.92307692307696" y="115.26315789473684" fill="rgba(127, 127, 127, .8)">+11</text>
                                <text transform="translate(10,6)" x="321.53846153846155" y="102.10526315789474" fill="rgba(127, 127, 127, .8)">+12</text>
                                <text transform="translate(10,6)" x="356.1538461538462" y="88.94736842105262" fill="rgba(127, 127, 127, .8)">+13</text>
                                <text transform="translate(10,6)" x="390.7692307692308" y="10" fill="rgba(127, 127, 127, .8)">+19</text>
                                <text transform="translate(10,6)" x="425.3846153846154" y="115.26315789473684" fill="rgba(127, 127, 127, .8)">+11</text>
                                <text transform="translate(10,6)" x="460" y="246.8421052631579" fill="rgba(127, 127, 127, .8)">+1</text>
                            </g>
                        </svg>
                    </section>
                </div>
            </section>
        </div>
        <div xmlns="http://www.w3.org/1999/xhtml" id="metrics-end"></div>
    </foreignObject>
</svg>