<svg xmlns="http://www.w3.org/2000/svg" width="480" height="814" class="">
    <defs>
        <style/>
    </defs>
    <style>@keyframes animation-gauge{0%{stroke-dasharray:0 329}}@keyframes animation-rainbow{0%,to{color:#7f00ff;fill:#7f00ff}14%{color:#a933ff;fill:#a933ff}29%{color:#007fff;fill:#007fff}43%{color:#00ff7f;fill:#00ff7f}57%{color:#ff0;fill:#ff0}71%{color:#ff7f00;fill:#ff7f00}86%{color:red;fill:red}}svg{font-family:-apple-system,BlinkMacSystemFont,Segoe UI,Helvetica,Arial,sans-serif,Apple Color Emoji,Segoe UI Emoji;color:#777}h2,h3{margin:8px 0 2px;padding:0;color:#0366d6;font-weight:400}h2 svg,h3 svg{fill:currentColor}h2{font-size:16px}h3,svg{font-size:14px}section&gt;.field{margin-left:5px;margin-right:5px}.field{display:flex;align-items:center;margin-bottom:2px;white-space:nowrap}.field svg{margin:0 8px;fill:#959da5;flex-shrink:0}.row{display:flex;flex-wrap:wrap}.row section{flex:1 1 0}.column{display:flex;flex-direction:column;align-items:center}.margin-bottom{margin-bottom:16px}.chart{padding:0 8px}:root{--color-calendar-graph-day-bg:#ebedf0;--color-calendar-graph-day-border:rgba(27,31,35,0.06);--color-calendar-graph-day-L1-bg:#9be9a8;--color-calendar-graph-day-L2-bg:#40c463;--color-calendar-graph-day-L3-bg:#30a14e;--color-calendar-graph-day-L4-bg:#216e39;--color-calendar-halloween-graph-day-L1-bg:#ffee4a;--color-calendar-halloween-graph-day-L2-bg:#ffc501;--color-calendar-halloween-graph-day-L3-bg:#fe9600;--color-calendar-halloween-graph-day-L4-bg:#03001c;--color-calendar-winter-graph-day-L1-bg:#0a3069;--color-calendar-winter-graph-day-L2-bg:#0969da;--color-calendar-winter-graph-day-L3-bg:#54aeff;--color-calendar-winter-graph-day-L4-bg:#b6e3ff;--color-calendar-graph-day-L4-border:rgba(27,31,35,0.06);--color-calendar-graph-day-L3-border:rgba(27,31,35,0.06);--color-calendar-graph-day-L2-border:rgba(27,31,35,0.06);--color-calendar-graph-day-L1-border:rgba(27,31,35,0.06)}#metrics-end{width:100%}</style>
    <style/>
    <foreignObject x="0" y="0" width="100%" height="100%">
        <div xmlns="http://www.w3.org/1999/xhtml" xmlns:xlink="http://www.w3.org/1999/xlink">
            <section class="stargazers">
                <h2 class="field">
                    <svg xmlns="http://www.w3.org/2000/svg" viewBox="0 0 16 16" width="16" height="16">
                        <path fill-rule="evenodd" d="M8 .25a.75.75 0 01.673.418l1.882 3.815 4.21.612a.75.75 0 01.416 1.279l-3.046 2.97.719 4.192a.75.75 0 01-1.088.791L8 12.347l-3.766 1.98a.75.75 0 01-1.088-.79l.72-4.194L.818 6.374a.75.75 0 01.416-1.28l4.21-.611L7.327.668A.75.75 0 018 .25zm0 2.445L6.615 5.5a.75.75 0 01-.564.41l-3.097.45 2.24 2.184a.75.75 0 01.216.664l-.528 3.084 2.769-1.456a.75.75 0 01.698 0l2.77 1.456-.53-3.084a.75.75 0 01.216-.664l2.24-2.183-3.096-.45a.75.75 0 01-.564-.41L8 2.694v.001z"/>
                    </svg>
                    Stargazers
                </h2>
                <div class="row margin-bottom">
                    <section class="column chart">
                        <h3>Total stargazers</h3>
                        <svg xmlns="http://www.w3.org/2000/svg" width="480" height="315">
                            <g transform="translate(10,270)" fill="none" font-size="10" font-family="sans-serif" text-anchor="middle">
                                <path class="domain" stroke="rgba(127, 127, 127, .8)" d="M10.5,0.5H460.5"/>
                                <g class="tick" opacity="1" transform="translate(10.5,0)">
                                    <line stroke="currentColor" y2="6" stroke-opacity="0.5"/>
                                    <text fill="rgba(127, 127, 127, .8)" y="9" dy="0.71em" transform="translate(-5,5) rotate(-45)" style="text-anchor: end;">Jun 14</text>
                                </g>
                                <g class="tick" opacity="1" transform="translate(45.11538461538462,0)">
                                    <line stroke="currentColor" y2="6" stroke-opacity="0.5"/>
                                    <text fill="rgba(127, 127, 127, .8)" y="9" dy="0.71em" transform="translate(-5,5) rotate(-45)" style="text-anchor: end;">Mon 15</text>
                                </g>
                                <g class="tick" opacity="1" transform="translate(79.73076923076924,0)">
                                    <line stroke="currentColor" y2="6" stroke-opacity="0.5"/>
                                    <text fill="rgba(127, 127, 127, .8)" y="9" dy="0.71em" transform="translate(-5,5) rotate(-45)" style="text-anchor: end;">Tue 16</text>
                                </g>
                                <g class="tick" opacity="1" transform="translate(114.34615384615385,0)">
                                    <line stroke="currentColor" y2="6" stroke-opacity="0.5"/>
                                    <text fill="rgba(127, 127, 127, .8)" y="9" dy="0.71em" transform="translate(-5,5) rotate(-45)" style="text-anchor: end;">Wed 17</text>
                                </g>
                                <g class="tick" opacity="1" transform="translate(148.96153846153848,0)">
                                    <line stroke="currentColor" y2="6" stroke-opacity="0.5"/>
                                    <text fill="rgba(127, 127, 127, .8)" y="9" dy="0.71em" transform="translate(-5,5) rotate(-45)" style="text-anchor: end;">Thu 18</text>
                                </g>
                                <g class="tick" opacity="1" transform="translate(183.5769230769231,0)">
                                    <line stroke="currentColor" y2="6" stroke-opacity="0.5"/>
                                    <text fill="rgba(127, 127, 127, .8)" y="9" dy="0.71em" transform="translate(-5,5) rotate(-45)" style="text-anchor: end;">Fri 19</text>
                                </g>
                                <g class="tick" opacity="1" transform="translate(218.1923076923077,0)">
                                    <line stroke="currentColor" y2="6" stroke-opacity="0.5"/>
                                    <text fill="rgba(127, 127, 127, .8)" y="9" dy="0.71em" transform="translate(-5,5) rotate(-45)" style="text-anchor: end;">Sat 20</text>
                                </g>
                                <g class="tick" opacity="1" transform="translate(252.8076923076923,0)">
                                    <line stroke="currentColor" y2="6" stroke-opacity="0.5"/>
                                    <text fill="rgba(127, 127, 127, .8)" y="9" dy="0.71em" transform="translate(-5,5) rotate(-45)" style="text-anchor: end;">Jun 21</text>
                                </g>
                                <g class="tick" opacity="1" transform="translate(287.42307692307696,0)">
                                    <line stroke="currentColor" y2="6" stroke-opacity="0.5"/>
                                    <text fill="rgba(127, 127, 127, .8)" y="9" dy="0.71em" transform="translate(-5,5) rotate(-45)" style="text-anchor: end;">Mon 22</text>
                                </g>
                                <g class="tick" opacity="1" transform="translate(322.03846153846155,0)">
                                    <line stroke="currentColor" y2="6" stroke-opacity="0.5"/>
                                    <text fill="rgba(127, 127, 127, .8)" y="9" dy="0.71em" transform="translate(-5,5) rotate(-45)" style="text-anchor: end;">Tue 23</text>
                                </g>
                                <g class="tick" opacity="1" transform="translate(356.6538461538462,0)">
                                    <line stroke="currentColor" y2="6" stroke-opacity="0.5"/>
                                    <text fill="rgba(127, 127, 127, .8)" y="9" dy="0.71em" transform="translate(-5,5) rotate(-45)" style="text-anchor: end;">Wed 24</text>
                                </g>
                                <g class="tick" opacity="1" transform="translate(391.2692307692308,0)">
                                    <line stroke="currentColor" y2="6" stroke-opacity="0.5"/>
                                    <text fill="rgba(127, 127, 127, .8)" y="9" dy="0.71em" transform="translate(-5,5) rotate(-45)" style="text-anchor: end;">Thu 25</text>
                                </g>
                                <g class="tick" opacity="1" transform="translate(425.8846153846154,0)">
                                    <line stroke="currentColor" y2="6" stroke-opacity="0.5"/>
                                    <text fill="rgba(127, 127, 127, .8)" y="9" dy="0.71em" transform="translate(-5,5) rotate(-45)" style="text-anchor: end;">Fri 26</text>
                                </g>
                                <g class="tick" opacity="1" transform="translate(460.5,0)">
                                    <line stroke="currentColor" y2="6" stroke-opacity="0.5"/>
                                    <text fill="rgba(127, 127, 127, .8)" y="9" dy="0.71em" transform="translate(-5,5) rotate(-45)" style="text-anchor: end;">Sat 27</text>
                                </g>
                            </g>
                            <g transform="translate(10,10)" fill="none" font-size="10" font-family="sans-serif" text-anchor="start">
                                <g class="tick" opacity="1" transform="translate(0,11.866120218579237)">
                                    <line stroke="currentColor" x2="460" stroke-opacity="0.5" stroke-dasharray="2,2"/>
                                    <text fill="rgba(127, 127, 127, .8)" x="0" dy="-4">18,900</text>
                                </g>
                                <g class="tick" opacity="1" transform="translate(0,39.18852459016394)">
                                    <line stroke="currentColor" x2="460" stroke-opacity="0.5" stroke-dasharray="2,2"/>
                                    <text fill="rgba(127, 127, 127, .8)" x="0" dy="-4">18,880</text>
                                </g>
                                <g class="tick" opacity="1" transform="translate(0,66.51092896174863)">
                                    <line stroke="currentColor" x2="460" stroke-opacity="0.5" stroke-dasharray="2,2"/>
                                    <text fill="rgba(127, 127, 127, .8)" x="0" dy="-4">18,860</text>
                                </g>
                                <g class="tick" opacity="1" transform="translate(0,93.83333333333334)">
                                    <line stroke="currentColor" x2="460" stroke-opacity="0.5" stroke-dasharray="2,2"/>
                                    <text fill="rgba(127, 127, 127, .8)" x="0" dy="-4">18,840</text>
                                </g>
                                <g class="tick" opacity="1" transform="translate(0,121.15573770491804)">
                                    <line stroke="currentColor" x2="460" stroke-opacity="0.5" stroke-dasharray="2,2"/>
                                    <text fill="rgba(127, 127, 127, .8)" x="0" dy="-4">18,820</text>
                                </g>
                                <g class="tick" opacity="1" transform="translate(0,148.4781420765027)">
                                    <line stroke="currentColor" x2="460" stroke-opacity="0.5" stroke-dasharray="2,2"/>
                                    <text fill="rgba(127, 127, 127, .8)" x="0" dy="-4">18,800</text>
                                </g>
                                <g class="tick" opacity="1" transform="translate(0,175.80054644808743)">
                                    <line stroke="currentColor" x2="460" stroke-opacity="0.5" stroke-dasharray="2,2"/>
                                    <text fill="rgba(127, 127, 127, .8)" x="0" dy="-4">18,780</text>
                                </g>
                                <g class="tick" opacity="1" transform="translate(0,203.12295081967213)">
                                    <line stroke="currentColor" x2="460" stroke-opacity="0.5" stroke-dasharray="2,2"/>
                                    <text fill="rgba(127, 127, 127, .8)" x="0" dy="-4">18,760</text>
                                </g>
                                <g class="tick" opacity="1" transform="translate(0,230.44535519125682)">
                                    <line stroke="currentColor" x2="460" stroke-opacity="0.5" stroke-dasharray="2,2"/>
                                    <text fill="rgba(127, 127, 127, .8)" x="0" dy="-4">18,740</text>
                                </g>
                                <g class="tick" opacity="1" transform="translate(0,257.76775956284155)">
                                    <line stroke="currentColor" x2="460" stroke-opacity="0.5" stroke-dasharray="2,2"/>
                                    <text fill="rgba(127, 127, 127, .8)" x="0" dy="-4">18,720</text>
                                </g>
                            </g>
                            <path transform="translate(10,10)" d="M10,260L44.615,244.973L79.231,221.749L113.846,206.721L148.462,183.497L183.077,172.568L217.692,164.372L252.308,143.88L286.923,112.459L321.538,102.896L356.154,71.475L390.769,35.956L425.385,18.197L460,10" fill="transparent" stroke="#87ceeb" stroke-width="2"/>
                            <path transform="translate(10,10)" d="M10,260L44.615,260L79.231,260L113.846,260L148.462,260L183.077,260L217.692,260L252.308,260L286.923,260L321.538,260L356.154,260L390.769,260L425.385,260L460,260L460,10L425.385,18.197L390.769,35.956L356.154,71.475L321.538,102.896L286.923,112.459L252.308,143.88L217.692,164.372L183.077,172.568L148.462,183.497L113.846,206.721L79.231,221.749L44.615,244.973L10,260Z" fill="rgba(88, 166, 255, .1)"/>
                            <g>
                                <circle transform="translate(10,10)" cx="10" cy="260" r="2" fill="#106cbc"/>
                                <circle transform="translate(10,10)" cx="44.61538461538462" cy="244.97267759562843" r="2" fill="#106cbc"/>
                                <circle transform="translate(10,10)" cx="79.23076923076924" cy="221.74863387978144" r="2" fill="#106cbc"/>
                                <circle transform="translate(10,10)" cx="113.84615384615385" cy="206.72131147540983" r="2" fill="#106cbc"/>
                                <circle transform="translate(10,10)" cx="148.46153846153848" cy="183.49726775956285" r="2" fill="#106cbc"/>
                                <circle transform="translate(10,10)" cx="183.0769230769231" cy="172.56830601092898" r="2" fill="#106cbc"/>
                                <circle transform="translate(10,10)" cx="217.6923076923077" cy="164.37158469945356" r="2" fill="#106cbc"/>
                                <circle transform="translate(10,10)" cx="252.3076923076923" cy="143.879781420765" r="2" fill="#106cbc"/>
                                <circle transform="translate(10,10)" cx="286.92307692307696" cy="112.45901639344262" r="2" fill="#106cbc"/>
                                <circle transform="translate(10,10)" cx="321.53846153846155" cy="102.89617486338797" r="2" fill="#106cbc"/>
                                <circle transform="translate(10,10)" cx="356.1538461538462" cy="71.4754098360656" r="2" fill="#106cbc"/>
                                <circle transform="translate(10,10)" cx="390.7692307692308" cy="35.95628415300546" r="2" fill="#106cbc"/>
                                <circle transform="translate(10,10)" cx="425.3846153846154" cy="18.19672131147542" r="2" fill="#106cbc"/>
                                <circle transform="translate(10,10)" cx="460" cy="10" r="2" fill="#106cbc"/>
                            </g>
                            <g fill="currentColor" text-anchor="middle" font-family="sans-serif" font-size="10" stroke="rgba(88, 166, 255, .05)" stroke-linejoin="round" stroke-width="4" paint-order="stroke fill">
                                <text transform="translate(10,6)" x="10" y="260" fill="rgba(127, 127, 127, .8)">18.7k</text>
                                <text transform="translate(10,6)" x="44.61538461538462" y="244.97267759562843" fill="rgba(127, 127, 127, .8)">18.7k</text>
                                <text transform="translate(10,6)" x="79.23076923076924" y="221.74863387978144" fill="rgba(127, 127, 127, .8)">18.7k</text>
                                <text transform="translate(10,6)" x="113.84615384615385" y="206.72131147540983" fill="rgba(127, 127, 127, .8)">18.7k</text>
                                <text transform="translate(10,6)" x="148.46153846153848" y="183.49726775956285" fill="rgba(127, 127, 127, .8)">18.7k</text>
                                <text transform="translate(10,6)" x="183.0769230769231" y="172.56830601092898" fill="rgba(127, 127, 127, .8)">18.7k</text>
                                <text transform="translate(10,6)" x="217.6923076923077" y="164.37158469945356" fill="rgba(127, 127, 127, .8)">18.7k</text>
                                <text transform="translate(10,6)" x="252.3076923076923" y="143.879781420765" fill="rgba(127, 127, 127, .8)">18.8k</text>
                                <text transform="translate(10,6)" x="286.92307692307696" y="112.45901639344262" fill="rgba(127, 127, 127, .8)">18.8k</text>
                                <text transform="translate(10,6)" x="321.53846153846155" y="102.89617486338797" fill="rgba(127, 127, 127, .8)">18.8k</text>
                                <text transform="translate(10,6)" x="356.1538461538462" y="71.4754098360656" fill="rgba(127, 127, 127, .8)">18.8k</text>
                                <text transform="translate(10,6)" x="390.7692307692308" y="35.95628415300546" fill="rgba(127, 127, 127, .8)">18.8k</text>
                                <text transform="translate(10,6)" x="425.3846153846154" y="18.19672131147542" fill="rgba(127, 127, 127, .8)">18.8k</text>
                                <text transform="translate(10,6)" x="460" y="10" fill="rgba(127, 127, 127, .8)">18.9k</text>
                            </g>
                        </svg>
                    </section>
                    <section class="column chart">
                        <h3>New stargazers per day</h3>
                        <svg xmlns="http://www.w3.org/2000/svg" width="480" height="315">
                            <g transform="translate(10,270)" fill="none" font-size="10" font-family="sans-serif" text-anchor="middle">
                                <path class="domain" stroke="rgba(127, 127, 127, .8)" d="M10.5,0.5H460.5"/>
                                <g class="tick" opacity="1" transform="translate(10.5,0)">
                                    <line stroke="currentColor" y2="6" stroke-opacity="0.5"/>
                                    <text fill="rgba(127, 127, 127, .8)" y="9" dy="0.71em" transform="translate(-5,5) rotate(-45)" style="text-anchor: end;">Jun 14</text>
                                </g>
                                <g class="tick" opacity="1" transform="translate(45.11538461538462,0)">
                                    <line stroke="currentColor" y2="6" stroke-opacity="0.5"/>
                                    <text fill="rgba(127, 127, 127, .8)" y="9" dy="0.71em" transform="translate(-5,5) rotate(-45)" style="text-anchor: end;">Mon 15</text>
                                </g>
                                <g class="tick" opacity="1" transform="translate(79.73076923076924,0)">
                                    <line stroke="currentColor" y2="6" stroke-opacity="0.5"/>
                                    <text fill="rgba(127, 127, 127, .8)" y="9" dy="0.71em" transform="translate(-5,5) rotate(-45)" style="text-anchor: end;">Tue 16</text>
                                </g>
                                <g class="tick" opacity="1" transform="translate(114.34615384615385,0)">
                                    <line stroke="currentColor" y2="6" stroke-opacity="0.5"/>
                                    <text fill="rgba(127, 127, 127, .8)" y="9" dy="0.71em" transform="translate(-5,5) rotate(-45)" style="text-anchor: end;">Wed 17</text>
                                </g>
                                <g class="tick" opacity="1" transform="translate(148.96153846153848,0)">
                                    <line stroke="currentColor" y2="6" stroke-opacity="0.5"/>
                                    <text fill="rgba(127, 127, 127, .8)" y="9" dy="0.71em" transform="translate(-5,5) rotate(-45)" style="text-anchor: end;">Thu 18</text>
                                </g>
                                <g class="tick" opacity="1" transform="translate(183.5769230769231,0)">
                                    <line stroke="currentColor" y2="6" stroke-opacity="0.5"/>
                                    <text fill="rgba(127, 127, 127, .8)" y="9" dy="0.71em" transform="translate(-5,5) rotate(-45)" style="text-anchor: end;">Fri 19</text>
                                </g>
                                <g class="tick" opacity="1" transform="translate(218.1923076923077,0)">
                                    <line stroke="currentColor" y2="6" stroke-opacity="0.5"/>
                                    <text fill="rgba(127, 127, 127, .8)" y="9" dy="0.71em" transform="translate(-5,5) rotate(-45)" style="text-anchor: end;">Sat 20</text>
                                </g>
                                <g class="tick" opacity="1" transform="translate(252.8076923076923,0)">
                                    <line stroke="currentColor" y2="6" stroke-opacity="0.5"/>
                                    <text fill="rgba(127, 127, 127, .8)" y="9" dy="0.71em" transform="translate(-5,5) rotate(-45)" style="text-anchor: end;">Jun 21</text>
                                </g>
                                <g class="tick" opacity="1" transform="translate(287.42307692307696,0)">
                                    <line stroke="currentColor" y2="6" stroke-opacity="0.5"/>
                                    <text fill="rgba(127, 127, 127, .8)" y="9" dy="0.71em" transform="translate(-5,5) rotate(-45)" style="text-anchor: end;">Mon 22</text>
                                </g>
                                <g class="tick" opacity="1" transform="translate(322.03846153846155,0)">
                                    <line stroke="currentColor" y2="6" stroke-opacity="0.5"/>
                                    <text fill="rgba(127, 127, 127, .8)" y="9" dy="0.71em" transform="translate(-5,5) rotate(-45)" style="text-anchor: end;">Tue 23</text>
                                </g>
                                <g class="tick" opacity="1" transform="translate(356.6538461538462,0)">
                                    <line stroke="currentColor" y2="6" stroke-opacity="0.5"/>
                                    <text fill="rgba(127, 127, 127, .8)" y="9" dy="0.71em" transform="translate(-5,5) rotate(-45)" style="text-anchor: end;">Wed 24</text>
                                </g>
                                <g class="tick" opacity="1" transform="translate(391.2692307692308,0)">
                                    <line stroke="currentColor" y2="6" stroke-opacity="0.5"/>
                                    <text fill="rgba(127, 127, 127, .8)" y="9" dy="0.71em" transform="translate(-5,5) rotate(-45)" style="text-anchor: end;">Thu 25</text>
                                </g>
                                <g class="tick" opacity="1" transform="translate(425.8846153846154,0)">
                                    <line stroke="currentColor" y2="6" stroke-opacity="0.5"/>
                                    <text fill="rgba(127, 127, 127, .8)" y="9" dy="0.71em" transform="translate(-5,5) rotate(-45)" style="text-anchor: end;">Fri 26</text>
                                </g>
                                <g class="tick" opacity="1" transform="translate(460.5,0)">
                                    <line stroke="currentColor" y2="6" stroke-opacity="0.5"/>
                                    <text fill="rgba(127, 127, 127, .8)" y="9" dy="0.71em" transform="translate(-5,5) rotate(-45)" style="text-anchor: end;">Sat 27</text>
                                </g>
                            </g>
                            <g transform="translate(10,10)" fill="none" font-size="10" font-family="sans-serif" text-anchor="start">
                                <g class="tick" opacity="1" transform="translate(0,20.115384615384606)">
                                    <line stroke="currentColor" x2="460" stroke-opacity="0.5" stroke-dasharray="2,2"/>
                                    <text fill="rgba(127, 127, 127, .8)" x="0" dy="-4">25</text>
                                </g>
                                <g class="tick" opacity="1" transform="translate(0,68.19230769230768)">
                                    <line stroke="currentColor" x2="460" stroke-opacity="0.5" stroke-dasharray="2,2"/>
                                    <text fill="rgba(127, 127, 127, .8)" x="0" dy="-4">20</text>
                                </g>
                                <g class="tick" opacity="1" transform="translate(0,116.26923076923079)">
                                    <line stroke="currentColor" x2="460" stroke-opacity="0.5" stroke-dasharray="2,2"/>
                                    <text fill="rgba(127, 127, 127, .8)" x="0" dy="-4">15</text>
                                </g>
                                <g class="tick" opacity="1" transform="translate(0,164.34615384615384)">
                                    <line stroke="currentColor" x2="460" stroke-opacity="0.5" stroke-dasharray="2,2"/>
                                    <text fill="rgba(127, 127, 127, .8)" x="0" dy="-4">10</text>
                                </g>
                                <g class="tick" opacity="1" transform="translate(0,212.42307692307693)">
                                    <line stroke="currentColor" x2="460" stroke-opacity="0.5" stroke-dasharray="2,2"/>
                                    <text fill="rgba(127, 127, 127, .8)" x="0" dy="-4">5</text>
                                </g>
                                <g class="tick" opacity="1" transform="translate(0,260.5)">
                                    <line stroke="currentColor" x2="460" stroke-opacity="0.5" stroke-dasharray="2,2"/>
                                    <text fill="rgba(127, 127, 127, .8)" x="0" dy="-4">0</text>
                                </g>
                            </g>
                            <path transform="translate(10,10)" d="M10,77.308L44.615,154.231L79.231,96.538L113.846,154.231L148.462,96.538L183.077,183.077L217.692,202.308L252.308,115.769L286.923,38.846L321.538,192.692L356.154,38.846L390.769,10L425.385,135L460,202.308" fill="transparent" stroke="#87ceeb" stroke-width="2"/>
                            <path transform="translate(10,10)" d="M10,260L44.615,260L79.231,260L113.846,260L148.462,260L183.077,260L217.692,260L252.308,260L286.923,260L321.538,260L356.154,260L390.769,260L425.385,260L460,260L460,202.308L425.385,135L390.769,10L356.154,38.846L321.538,192.692L286.923,38.846L252.308,115.769L217.692,202.308L183.077,183.077L148.462,96.538L113.846,154.231L79.231,96.538L44.615,154.231L10,77.308Z" fill="rgba(88, 166, 255, .1)"/>
                            <g>
                                <circle transform="translate(10,10)" cx="10" cy="77.30769230769232" r="2" fill="#106cbc"/>
                                <circle transform="translate(10,10)" cx="44.61538461538462" cy="154.23076923076923" r="2" fill="#106cbc"/>
                                <circle transform="translate(10,10)" cx="79.23076923076924" cy="96.53846153846153" r="2" fill="#106cbc"/>
                                <circle transform="translate(10,10)" cx="113.84615384615385" cy="154.23076923076923" r="2" fill="#106cbc"/>
                                <circle transform="translate(10,10)" cx="148.46153846153848" cy="96.53846153846153" r="2" fill="#106cbc"/>
                                <circle transform="translate(10,10)" cx="183.0769230769231" cy="183.07692307692307" r="2" fill="#106cbc"/>
                                <circle transform="translate(10,10)" cx="217.6923076923077" cy="202.3076923076923" r="2" fill="#106cbc"/>
                                <circle transform="translate(10,10)" cx="252.3076923076923" cy="115.76923076923079" r="2" fill="#106cbc"/>
                                <circle transform="translate(10,10)" cx="286.92307692307696" cy="38.846153846153854" r="2" fill="#106cbc"/>
                                <circle transform="translate(10,10)" cx="321.53846153846155" cy="192.6923076923077" r="2" fill="#106cbc"/>
                                <circle transform="translate(10,10)" cx="356.1538461538462" cy="38.846153846153854" r="2" fill="#106cbc"/>
                                <circle transform="translate(10,10)" cx="390.7692307692308" cy="10" r="2" fill="#106cbc"/>
                                <circle transform="translate(10,10)" cx="425.3846153846154" cy="135" r="2" fill="#106cbc"/>
                                <circle transform="translate(10,10)" cx="460" cy="202.3076923076923" r="2" fill="#106cbc"/>
                            </g>
                            <g fill="currentColor" text-anchor="middle" font-family="sans-serif" font-size="10" stroke="rgba(88, 166, 255, .05)" stroke-linejoin="round" stroke-width="4" paint-order="stroke fill">
                                <text transform="translate(10,6)" x="10" y="77.30769230769232" fill="rgba(127, 127, 127, .8)">+19</text>
                                <text transform="translate(10,6)" x="44.61538461538462" y="154.23076923076923" fill="rgba(127, 127, 127, .8)">+11</text>
                                <text transform="translate(10,6)" x="79.23076923076924" y="96.53846153846153" fill="rgba(127, 127, 127, .8)">+17</text>
                                <text transform="translate(10,6)" x="113.84615384615385" y="154.23076923076923" fill="rgba(127, 127, 127, .8)">+11</text>
                                <text transform="translate(10,6)" x="148.46153846153848" y="96.53846153846153" fill="rgba(127, 127, 127, .8)">+17</text>
                                <text transform="translate(10,6)" x="183.0769230769231" y="183.07692307692307" fill="rgba(127, 127, 127, .8)">+8</text>
                                <text transform="translate(10,6)" x="217.6923076923077" y="202.3076923076923" fill="rgba(127, 127, 127, .8)">+6</text>
                                <text transform="translate(10,6)" x="252.3076923076923" y="115.76923076923079" fill="rgba(127, 127, 127, .8)">+15</text>
                                <text transform="translate(10,6)" x="286.92307692307696" y="38.846153846153854" fill="rgba(127, 127, 127, .8)">+23</text>
                                <text transform="translate(10,6)" x="321.53846153846155" y="192.6923076923077" fill="rgba(127, 127, 127, .8)">+7</text>
                                <text transform="translate(10,6)" x="356.1538461538462" y="38.846153846153854" fill="rgba(127, 127, 127, .8)">+23</text>
                                <text transform="translate(10,6)" x="390.7692307692308" y="10" fill="rgba(127, 127, 127, .8)">+26</text>
                                <text transform="translate(10,6)" x="425.3846153846154" y="135" fill="rgba(127, 127, 127, .8)">+13</text>
                                <text transform="translate(10,6)" x="460" y="202.3076923076923" fill="rgba(127, 127, 127, .8)">+6</text>
                            </g>
                        </svg>
                    </section>
                </div>
            </section>
        </div>
        <div xmlns="http://www.w3.org/1999/xhtml" id="metrics-end"></div>
    </foreignObject>
</svg>