<svg xmlns="http://www.w3.org/2000/svg" width="480" height="814" class="">
    <defs>
        <style/>
    </defs>
    <style>@keyframes animation-gauge{0%{stroke-dasharray:0 329}}@keyframes animation-rainbow{0%,to{color:#7f00ff;fill:#7f00ff}14%{color:#a933ff;fill:#a933ff}29%{color:#007fff;fill:#007fff}43%{color:#00ff7f;fill:#00ff7f}57%{color:#ff0;fill:#ff0}71%{color:#ff7f00;fill:#ff7f00}86%{color:red;fill:red}}svg{font-family:-apple-system,BlinkMacSystemFont,Segoe UI,Helvetica,Arial,sans-serif,Apple Color Emoji,Segoe UI Emoji;color:#777}h2,h3{margin:8px 0 2px;padding:0;color:#0366d6;font-weight:400}h2 svg,h3 svg{fill:currentColor}h2{font-size:16px}h3,svg{font-size:14px}section&gt;.field{margin-left:5px;margin-right:5px}.field{display:flex;align-items:center;margin-bottom:2px;white-space:nowrap}.field svg{margin:0 8px;fill:#959da5;flex-shrink:0}.row{display:flex;flex-wrap:wrap}.row section{flex:1 1 0}.column{display:flex;flex-direction:column;align-items:center}.margin-bottom{margin-bottom:16px}.chart{padding:0 8px}:root{--color-calendar-graph-day-bg:#ebedf0;--color-calendar-graph-day-border:rgba(27,31,35,0.06);--color-calendar-graph-day-L1-bg:#9be9a8;--color-calendar-graph-day-L2-bg:#40c463;--color-calendar-graph-day-L3-bg:#30a14e;--color-calendar-graph-day-L4-bg:#216e39;--color-calendar-halloween-graph-day-L1-bg:#ffee4a;--color-calendar-halloween-graph-day-L2-bg:#ffc501;--color-calendar-halloween-graph-day-L3-bg:#fe9600;--color-calendar-halloween-graph-day-L4-bg:#03001c;--color-calendar-winter-graph-day-L1-bg:#0a3069;--color-calendar-winter-graph-day-L2-bg:#0969da;--color-calendar-winter-graph-day-L3-bg:#54aeff;--color-calendar-winter-graph-day-L4-bg:#b6e3ff;--color-calendar-graph-day-L4-border:rgba(27,31,35,0.06);--color-calendar-graph-day-L3-border:rgba(27,31,35,0.06);--color-calendar-graph-day-L2-border:rgba(27,31,35,0.06);--color-calendar-graph-day-L1-border:rgba(27,31,35,0.06)}#metrics-end{width:100%}</style>
    <style/>
    <foreignObject x="0" y="0" width="100%" height="100%">
        <div xmlns="http://www.w3.org/1999/xhtml" xmlns:xlink="http://www.w3.org/1999/xlink">
            <section class="stargazers">
                <h2 class="field">
                    <svg xmlns="http://www.w3.org/2000/svg" viewBox="0 0 16 16" width="16" height="16">
                        <path fill-rule="evenodd" d="M8 .25a.75.75 0 01.673.418l1.882 3.815 4.21.612a.75.75 0 01.416 1.279l-3.046 2.97.719 4.192a.75.75 0 01-1.088.791L8 12.347l-3.766 1.98a.75.75 0 01-1.088-.79l.72-4.194L.818 6.374a.75.75 0 01.416-1.28l4.21-.611L7.327.668A.75.75 0 018 .25zm0 2.445L6.615 5.5a.75.75 0 01-.564.41l-3.097.45 2.24 2.184a.75.75 0 01.216.664l-.528 3.084 2.769-1.456a.75.75 0 01.698 0l2.77 1.456-.53-3.084a.75.75 0 01.216-.664l2.24-2.183-3.096-.45a.75.75 0 01-.564-.41L8 2.694v.001z"/>
                    </svg>
                    Stargazers
                </h2>
                <div class="row margin-bottom">
                    <section class="column chart">
                        <h3>Total stargazers</h3>
                        <svg xmlns="http://www.w3.org/2000/svg" width="480" height="315">
                            <g transform="translate(10,270)" fill="none" font-size="10" font-family="sans-serif" text-anchor="middle">
                                <path class="domain" stroke="rgba(127, 127, 127, .8)" d="M10.5,0.5H460.5"/>
                                <g class="tick" opacity="1" transform="translate(10.5,0)">
                                    <line stroke="currentColor" y2="6" stroke-opacity="0.5"/>
                                    <text fill="rgba(127, 127, 127, .8)" y="9" dy="0.71em" transform="translate(-5,5) rotate(-45)" style="text-anchor: end;">Sat 02</text>
                                </g>
                                <g class="tick" opacity="1" transform="translate(45.11538461538462,0)">
                                    <line stroke="currentColor" y2="6" stroke-opacity="0.5"/>
                                    <text fill="rgba(127, 127, 127, .8)" y="9" dy="0.71em" transform="translate(-5,5) rotate(-45)" style="text-anchor: end;">May 03</text>
                                </g>
                                <g class="tick" opacity="1" transform="translate(79.73076923076924,0)">
                                    <line stroke="currentColor" y2="6" stroke-opacity="0.5"/>
                                    <text fill="rgba(127, 127, 127, .8)" y="9" dy="0.71em" transform="translate(-5,5) rotate(-45)" style="text-anchor: end;">Mon 04</text>
                                </g>
                                <g class="tick" opacity="1" transform="translate(114.34615384615385,0)">
                                    <line stroke="currentColor" y2="6" stroke-opacity="0.5"/>
                                    <text fill="rgba(127, 127, 127, .8)" y="9" dy="0.71em" transform="translate(-5,5) rotate(-45)" style="text-anchor: end;">Tue 05</text>
                                </g>
                                <g class="tick" opacity="1" transform="translate(148.96153846153848,0)">
                                    <line stroke="currentColor" y2="6" stroke-opacity="0.5"/>
                                    <text fill="rgba(127, 127, 127, .8)" y="9" dy="0.71em" transform="translate(-5,5) rotate(-45)" style="text-anchor: end;">Wed 06</text>
                                </g>
                                <g class="tick" opacity="1" transform="translate(183.5769230769231,0)">
                                    <line stroke="currentColor" y2="6" stroke-opacity="0.5"/>
                                    <text fill="rgba(127, 127, 127, .8)" y="9" dy="0.71em" transform="translate(-5,5) rotate(-45)" style="text-anchor: end;">Thu 07</text>
                                </g>
                                <g class="tick" opacity="1" transform="translate(218.1923076923077,0)">
                                    <line stroke="currentColor" y2="6" stroke-opacity="0.5"/>
                                    <text fill="rgba(127, 127, 127, .8)" y="9" dy="0.71em" transform="translate(-5,5) rotate(-45)" style="text-anchor: end;">Fri 08</text>
                                </g>
                                <g class="tick" opacity="1" transform="translate(252.8076923076923,0)">
                                    <line stroke="currentColor" y2="6" stroke-opacity="0.5"/>
                                    <text fill="rgba(127, 127, 127, .8)" y="9" dy="0.71em" transform="translate(-5,5) rotate(-45)" style="text-anchor: end;">Sat 09</text>
                                </g>
                                <g class="tick" opacity="1" transform="translate(287.42307692307696,0)">
                                    <line stroke="currentColor" y2="6" stroke-opacity="0.5"/>
                                    <text fill="rgba(127, 127, 127, .8)" y="9" dy="0.71em" transform="translate(-5,5) rotate(-45)" style="text-anchor: end;">May 10</text>
                                </g>
                                <g class="tick" opacity="1" transform="translate(322.03846153846155,0)">
                                    <line stroke="currentColor" y2="6" stroke-opacity="0.5"/>
                                    <text fill="rgba(127, 127, 127, .8)" y="9" dy="0.71em" transform="translate(-5,5) rotate(-45)" style="text-anchor: end;">Mon 11</text>
                                </g>
                                <g class="tick" opacity="1" transform="translate(356.6538461538462,0)">
                                    <line stroke="currentColor" y2="6" stroke-opacity="0.5"/>
                                    <text fill="rgba(127, 127, 127, .8)" y="9" dy="0.71em" transform="translate(-5,5) rotate(-45)" style="text-anchor: end;">Tue 12</text>
                                </g>
                                <g class="tick" opacity="1" transform="translate(391.2692307692308,0)">
                                    <line stroke="currentColor" y2="6" stroke-opacity="0.5"/>
                                    <text fill="rgba(127, 127, 127, .8)" y="9" dy="0.71em" transform="translate(-5,5) rotate(-45)" style="text-anchor: end;">Wed 13</text>
                                </g>
                                <g class="tick" opacity="1" transform="translate(425.8846153846154,0)">
                                    <line stroke="currentColor" y2="6" stroke-opacity="0.5"/>
                                    <text fill="rgba(127, 127, 127, .8)" y="9" dy="0.71em" transform="translate(-5,5) rotate(-45)" style="text-anchor: end;">Thu 14</text>
                                </g>
                                <g class="tick" opacity="1" transform="translate(460.5,0)">
                                    <line stroke="currentColor" y2="6" stroke-opacity="0.5"/>
                                    <text fill="rgba(127, 127, 127, .8)" y="9" dy="0.71em" transform="translate(-5,5) rotate(-45)" style="text-anchor: end;">Fri 15</text>
                                </g>
                            </g>
                            <g transform="translate(10,10)" fill="none" font-size="10" font-family="sans-serif" text-anchor="start">
                                <g class="tick" opacity="1" transform="translate(0,26.322784810126585)">
                                    <line stroke="currentColor" x2="460" stroke-opacity="0.5" stroke-dasharray="2,2"/>
                                    <text fill="rgba(127, 127, 127, .8)" x="0" dy="-4">18,050</text>
                                </g>
                                <g class="tick" opacity="1" transform="translate(0,79.06540084388186)">
                                    <line stroke="currentColor" x2="460" stroke-opacity="0.5" stroke-dasharray="2,2"/>
                                    <text fill="rgba(127, 127, 127, .8)" x="0" dy="-4">18,000</text>
                                </g>
                                <g class="tick" opacity="1" transform="translate(0,131.80801687763713)">
                                    <line stroke="currentColor" x2="460" stroke-opacity="0.5" stroke-dasharray="2,2"/>
                                    <text fill="rgba(127, 127, 127, .8)" x="0" dy="-4">17,950</text>
                                </g>
                                <g class="tick" opacity="1" transform="translate(0,184.55063291139237)">
                                    <line stroke="currentColor" x2="460" stroke-opacity="0.5" stroke-dasharray="2,2"/>
                                    <text fill="rgba(127, 127, 127, .8)" x="0" dy="-4">17,900</text>
                                </g>
                                <g class="tick" opacity="1" transform="translate(0,237.2932489451477)">
                                    <line stroke="currentColor" x2="460" stroke-opacity="0.5" stroke-dasharray="2,2"/>
                                    <text fill="rgba(127, 127, 127, .8)" x="0" dy="-4">17,850</text>
                                </g>
                            </g>
                            <path transform="translate(10,10)" d="M10,260L44.615,250.506L79.231,244.177L113.846,230.464L148.462,216.751L183.077,204.093L217.692,189.325L252.308,182.996L286.923,175.612L321.538,161.899L356.154,142.911L390.769,126.034L425.385,44.81L460,10" fill="transparent" stroke="#87ceeb" stroke-width="2"/>
                            <path transform="translate(10,10)" d="M10,260L44.615,260L79.231,260L113.846,260L148.462,260L183.077,260L217.692,260L252.308,260L286.923,260L321.538,260L356.154,260L390.769,260L425.385,260L460,260L460,10L425.385,44.81L390.769,126.034L356.154,142.911L321.538,161.899L286.923,175.612L252.308,182.996L217.692,189.325L183.077,204.093L148.462,216.751L113.846,230.464L79.231,244.177L44.615,250.506L10,260Z" fill="rgba(88, 166, 255, .1)"/>
                            <g>
                                <circle transform="translate(10,10)" cx="10" cy="260" r="2" fill="#106cbc"/>
                                <circle transform="translate(10,10)" cx="44.61538461538462" cy="250.50632911392404" r="2" fill="#106cbc"/>
                                <circle transform="translate(10,10)" cx="79.23076923076924" cy="244.17721518987344" r="2" fill="#106cbc"/>
                                <circle transform="translate(10,10)" cx="113.84615384615385" cy="230.46413502109704" r="2" fill="#106cbc"/>
                                <circle transform="translate(10,10)" cx="148.46153846153848" cy="216.75105485232066" r="2" fill="#106cbc"/>
                                <circle transform="translate(10,10)" cx="183.0769230769231" cy="204.09282700421943" r="2" fill="#106cbc"/>
                                <circle transform="translate(10,10)" cx="217.6923076923077" cy="189.32489451476792" r="2" fill="#106cbc"/>
                                <circle transform="translate(10,10)" cx="252.3076923076923" cy="182.9957805907173" r="2" fill="#106cbc"/>
                                <circle transform="translate(10,10)" cx="286.92307692307696" cy="175.61181434599158" r="2" fill="#106cbc"/>
                                <circle transform="translate(10,10)" cx="321.53846153846155" cy="161.8987341772152" r="2" fill="#106cbc"/>
                                <circle transform="translate(10,10)" cx="356.1538461538462" cy="142.91139240506328" r="2" fill="#106cbc"/>
                                <circle transform="translate(10,10)" cx="390.7692307692308" cy="126.03375527426161" r="2" fill="#106cbc"/>
                                <circle transform="translate(10,10)" cx="425.3846153846154" cy="44.81012658227847" r="2" fill="#106cbc"/>
                                <circle transform="translate(10,10)" cx="460" cy="10" r="2" fill="#106cbc"/>
                            </g>
                            <g fill="currentColor" text-anchor="middle" font-family="sans-serif" font-size="10" stroke="rgba(88, 166, 255, .05)" stroke-linejoin="round" stroke-width="4" paint-order="stroke fill">
                                <text transform="translate(10,6)" x="10" y="260" fill="rgba(127, 127, 127, .8)">17.8k</text>
                                <text transform="translate(10,6)" x="44.61538461538462" y="250.50632911392404" fill="rgba(127, 127, 127, .8)">17.8k</text>
                                <text transform="translate(10,6)" x="79.23076923076924" y="244.17721518987344" fill="rgba(127, 127, 127, .8)">17.8k</text>
                                <text transform="translate(10,6)" x="113.84615384615385" y="230.46413502109704" fill="rgba(127, 127, 127, .8)">17.8k</text>
                                <text transform="translate(10,6)" x="148.46153846153848" y="216.75105485232066" fill="rgba(127, 127, 127, .8)">17.8k</text>
                                <text transform="translate(10,6)" x="183.0769230769231" y="204.09282700421943" fill="rgba(127, 127, 127, .8)">17.8k</text>
                                <text transform="translate(10,6)" x="217.6923076923077" y="189.32489451476792" fill="rgba(127, 127, 127, .8)">17.8k</text>
                                <text transform="translate(10,6)" x="252.3076923076923" y="182.9957805907173" fill="rgba(127, 127, 127, .8)">17.9k</text>
                                <text transform="translate(10,6)" x="286.92307692307696" y="175.61181434599158" fill="rgba(127, 127, 127, .8)">17.9k</text>
                                <text transform="translate(10,6)" x="321.53846153846155" y="161.8987341772152" fill="rgba(127, 127, 127, .8)">17.9k</text>
                                <text transform="translate(10,6)" x="356.1538461538462" y="142.91139240506328" fill="rgba(127, 127, 127, .8)">17.9k</text>
                                <text transform="translate(10,6)" x="390.7692307692308" y="126.03375527426161" fill="rgba(127, 127, 127, .8)">17.9k</text>
                                <text transform="translate(10,6)" x="425.3846153846154" y="44.81012658227847" fill="rgba(127, 127, 127, .8)">18k</text>
                                <text transform="translate(10,6)" x="460" y="10" fill="rgba(127, 127, 127, .8)">18k</text>
                            </g>
                        </svg>
                    </section>
                    <section class="column chart">
                        <h3>New stargazers per day</h3>
                        <svg xmlns="http://www.w3.org/2000/svg" width="480" height="315">
                            <g transform="translate(10,270)" fill="none" font-size="10" font-family="sans-serif" text-anchor="middle">
                                <path class="domain" stroke="rgba(127, 127, 127, .8)" d="M10.5,0.5H460.5"/>
                                <g class="tick" opacity="1" transform="translate(10.5,0)">
                                    <line stroke="currentColor" y2="6" stroke-opacity="0.5"/>
                                    <text fill="rgba(127, 127, 127, .8)" y="9" dy="0.71em" transform="translate(-5,5) rotate(-45)" style="text-anchor: end;">Sat 02</text>
                                </g>
                                <g class="tick" opacity="1" transform="translate(45.11538461538462,0)">
                                    <line stroke="currentColor" y2="6" stroke-opacity="0.5"/>
                                    <text fill="rgba(127, 127, 127, .8)" y="9" dy="0.71em" transform="translate(-5,5) rotate(-45)" style="text-anchor: end;">May 03</text>
                                </g>
                                <g class="tick" opacity="1" transform="translate(79.73076923076924,0)">
                                    <line stroke="currentColor" y2="6" stroke-opacity="0.5"/>
                                    <text fill="rgba(127, 127, 127, .8)" y="9" dy="0.71em" transform="translate(-5,5) rotate(-45)" style="text-anchor: end;">Mon 04</text>
                                </g>
                                <g class="tick" opacity="1" transform="translate(114.34615384615385,0)">
                                    <line stroke="currentColor" y2="6" stroke-opacity="0.5"/>
                                    <text fill="rgba(127, 127, 127, .8)" y="9" dy="0.71em" transform="translate(-5,5) rotate(-45)" style="text-anchor: end;">Tue 05</text>
                                </g>
                                <g class="tick" opacity="1" transform="translate(148.96153846153848,0)">
                                    <line stroke="currentColor" y2="6" stroke-opacity="0.5"/>
                                    <text fill="rgba(127, 127, 127, .8)" y="9" dy="0.71em" transform="translate(-5,5) rotate(-45)" style="text-anchor: end;">Wed 06</text>
                                </g>
                                <g class="tick" opacity="1" transform="translate(183.5769230769231,0)">
                                    <line stroke="currentColor" y2="6" stroke-opacity="0.5"/>
                                    <text fill="rgba(127, 127, 127, .8)" y="9" dy="0.71em" transform="translate(-5,5) rotate(-45)" style="text-anchor: end;">Thu 07</text>
                                </g>
                                <g class="tick" opacity="1" transform="translate(218.1923076923077,0)">
                                    <line stroke="currentColor" y2="6" stroke-opacity="0.5"/>
                                    <text fill="rgba(127, 127, 127, .8)" y="9" dy="0.71em" transform="translate(-5,5) rotate(-45)" style="text-anchor: end;">Fri 08</text>
                                </g>
                                <g class="tick" opacity="1" transform="translate(252.8076923076923,0)">
                                    <line stroke="currentColor" y2="6" stroke-opacity="0.5"/>
                                    <text fill="rgba(127, 127, 127, .8)" y="9" dy="0.71em" transform="translate(-5,5) rotate(-45)" style="text-anchor: end;">Sat 09</text>
                                </g>
                                <g class="tick" opacity="1" transform="translate(287.42307692307696,0)">
                                    <line stroke="currentColor" y2="6" stroke-opacity="0.5"/>
                                    <text fill="rgba(127, 127, 127, .8)" y="9" dy="0.71em" transform="translate(-5,5) rotate(-45)" style="text-anchor: end;">May 10</text>
                                </g>
                                <g class="tick" opacity="1" transform="translate(322.03846153846155,0)">
                                    <line stroke="currentColor" y2="6" stroke-opacity="0.5"/>
                                    <text fill="rgba(127, 127, 127, .8)" y="9" dy="0.71em" transform="translate(-5,5) rotate(-45)" style="text-anchor: end;">Mon 11</text>
                                </g>
                                <g class="tick" opacity="1" transform="translate(356.6538461538462,0)">
                                    <line stroke="currentColor" y2="6" stroke-opacity="0.5"/>
                                    <text fill="rgba(127, 127, 127, .8)" y="9" dy="0.71em" transform="translate(-5,5) rotate(-45)" style="text-anchor: end;">Tue 12</text>
                                </g>
                                <g class="tick" opacity="1" transform="translate(391.2692307692308,0)">
                                    <line stroke="currentColor" y2="6" stroke-opacity="0.5"/>
                                    <text fill="rgba(127, 127, 127, .8)" y="9" dy="0.71em" transform="translate(-5,5) rotate(-45)" style="text-anchor: end;">Wed 13</text>
                                </g>
                                <g class="tick" opacity="1" transform="translate(425.8846153846154,0)">
                                    <line stroke="currentColor" y2="6" stroke-opacity="0.5"/>
                                    <text fill="rgba(127, 127, 127, .8)" y="9" dy="0.71em" transform="translate(-5,5) rotate(-45)" style="text-anchor: end;">Thu 14</text>
                                </g>
                                <g class="tick" opacity="1" transform="translate(460.5,0)">
                                    <line stroke="currentColor" y2="6" stroke-opacity="0.5"/>
                                    <text fill="rgba(127, 127, 127, .8)" y="9" dy="0.71em" transform="translate(-5,5) rotate(-45)" style="text-anchor: end;">Fri 15</text>
                                </g>
                            </g>
                            <g transform="translate(10,10)" fill="none" font-size="10" font-family="sans-serif" text-anchor="start">
                                <g class="tick" opacity="1" transform="translate(0,33.227272727272734)">
                                    <line stroke="currentColor" x2="460" stroke-opacity="0.5" stroke-dasharray="2,2"/>
                                    <text fill="rgba(127, 127, 127, .8)" x="0" dy="-4">70</text>
                                </g>
                                <g class="tick" opacity="1" transform="translate(0,65.69480519480518)">
                                    <line stroke="currentColor" x2="460" stroke-opacity="0.5" stroke-dasharray="2,2"/>
                                    <text fill="rgba(127, 127, 127, .8)" x="0" dy="-4">60</text>
                                </g>
                                <g class="tick" opacity="1" transform="translate(0,98.16233766233766)">
                                    <line stroke="currentColor" x2="460" stroke-opacity="0.5" stroke-dasharray="2,2"/>
                                    <text fill="rgba(127, 127, 127, .8)" x="0" dy="-4">50</text>
                                </g>
                                <g class="tick" opacity="1" transform="translate(0,130.62987012987014)">
                                    <line stroke="currentColor" x2="460" stroke-opacity="0.5" stroke-dasharray="2,2"/>
                                    <text fill="rgba(127, 127, 127, .8)" x="0" dy="-4">40</text>
                                </g>
                                <g class="tick" opacity="1" transform="translate(0,163.0974025974026)">
                                    <line stroke="currentColor" x2="460" stroke-opacity="0.5" stroke-dasharray="2,2"/>
                                    <text fill="rgba(127, 127, 127, .8)" x="0" dy="-4">30</text>
                                </g>
                                <g class="tick" opacity="1" transform="translate(0,195.56493506493507)">
                                    <line stroke="currentColor" x2="460" stroke-opacity="0.5" stroke-dasharray="2,2"/>
                                    <text fill="rgba(127, 127, 127, .8)" x="0" dy="-4">20</text>
                                </g>
                                <g class="tick" opacity="1" transform="translate(0,228.03246753246754)">
                                    <line stroke="currentColor" x2="460" stroke-opacity="0.5" stroke-dasharray="2,2"/>
                                    <text fill="rgba(127, 127, 127, .8)" x="0" dy="-4">10</text>
                                </g>
                                <g class="tick" opacity="1" transform="translate(0,260.5)">
                                    <line stroke="currentColor" x2="460" stroke-opacity="0.5" stroke-dasharray="2,2"/>
                                    <text fill="rgba(127, 127, 127, .8)" x="0" dy="-4">0</text>
                                </g>
                            </g>
                            <path transform="translate(10,10)" d="M10,230.779L44.615,230.779L79.231,240.519L113.846,217.792L148.462,217.792L183.077,221.039L217.692,214.545L252.308,240.519L286.923,237.273L321.538,217.792L356.154,201.558L390.769,208.052L425.385,10L460,152.857" fill="transparent" stroke="#87ceeb" stroke-width="2"/>
                            <path transform="translate(10,10)" d="M10,260L44.615,260L79.231,260L113.846,260L148.462,260L183.077,260L217.692,260L252.308,260L286.923,260L321.538,260L356.154,260L390.769,260L425.385,260L460,260L460,152.857L425.385,10L390.769,208.052L356.154,201.558L321.538,217.792L286.923,237.273L252.308,240.519L217.692,214.545L183.077,221.039L148.462,217.792L113.846,217.792L79.231,240.519L44.615,230.779L10,230.779Z" fill="rgba(88, 166, 255, .1)"/>
                            <g>
                                <circle transform="translate(10,10)" cx="10" cy="230.77922077922076" r="2" fill="#106cbc"/>
                                <circle transform="translate(10,10)" cx="44.61538461538462" cy="230.77922077922076" r="2" fill="#106cbc"/>
                                <circle transform="translate(10,10)" cx="79.23076923076924" cy="240.51948051948054" r="2" fill="#106cbc"/>
                                <circle transform="translate(10,10)" cx="113.84615384615385" cy="217.79220779220782" r="2" fill="#106cbc"/>
                                <circle transform="translate(10,10)" cx="148.46153846153848" cy="217.79220779220782" r="2" fill="#106cbc"/>
                                <circle transform="translate(10,10)" cx="183.0769230769231" cy="221.03896103896102" r="2" fill="#106cbc"/>
                                <circle transform="translate(10,10)" cx="217.6923076923077" cy="214.54545454545453" r="2" fill="#106cbc"/>
                                <circle transform="translate(10,10)" cx="252.3076923076923" cy="240.51948051948054" r="2" fill="#106cbc"/>
                                <circle transform="translate(10,10)" cx="286.92307692307696" cy="237.27272727272725" r="2" fill="#106cbc"/>
                                <circle transform="translate(10,10)" cx="321.53846153846155" cy="217.79220779220782" r="2" fill="#106cbc"/>
                                <circle transform="translate(10,10)" cx="356.1538461538462" cy="201.5584415584416" r="2" fill="#106cbc"/>
                                <circle transform="translate(10,10)" cx="390.7692307692308" cy="208.05194805194802" r="2" fill="#106cbc"/>
                                <circle transform="translate(10,10)" cx="425.3846153846154" cy="10" r="2" fill="#106cbc"/>
                                <circle transform="translate(10,10)" cx="460" cy="152.85714285714283" r="2" fill="#106cbc"/>
                            </g>
                            <g fill="currentColor" text-anchor="middle" font-family="sans-serif" font-size="10" stroke="rgba(88, 166, 255, .05)" stroke-linejoin="round" stroke-width="4" paint-order="stroke fill">
                                <text transform="translate(10,6)" x="10" y="230.77922077922076" fill="rgba(127, 127, 127, .8)">+9</text>
                                <text transform="translate(10,6)" x="44.61538461538462" y="230.77922077922076" fill="rgba(127, 127, 127, .8)">+9</text>
                                <text transform="translate(10,6)" x="79.23076923076924" y="240.51948051948054" fill="rgba(127, 127, 127, .8)">+6</text>
                                <text transform="translate(10,6)" x="113.84615384615385" y="217.79220779220782" fill="rgba(127, 127, 127, .8)">+13</text>
                                <text transform="translate(10,6)" x="148.46153846153848" y="217.79220779220782" fill="rgba(127, 127, 127, .8)">+13</text>
                                <text transform="translate(10,6)" x="183.0769230769231" y="221.03896103896102" fill="rgba(127, 127, 127, .8)">+12</text>
                                <text transform="translate(10,6)" x="217.6923076923077" y="214.54545454545453" fill="rgba(127, 127, 127, .8)">+14</text>
                                <text transform="translate(10,6)" x="252.3076923076923" y="240.51948051948054" fill="rgba(127, 127, 127, .8)">+6</text>
                                <text transform="translate(10,6)" x="286.92307692307696" y="237.27272727272725" fill="rgba(127, 127, 127, .8)">+7</text>
                                <text transform="translate(10,6)" x="321.53846153846155" y="217.79220779220782" fill="rgba(127, 127, 127, .8)">+13</text>
                                <text transform="translate(10,6)" x="356.1538461538462" y="201.5584415584416" fill="rgba(127, 127, 127, .8)">+18</text>
                                <text transform="translate(10,6)" x="390.7692307692308" y="208.05194805194802" fill="rgba(127, 127, 127, .8)">+16</text>
                                <text transform="translate(10,6)" x="425.3846153846154" y="10" fill="rgba(127, 127, 127, .8)">+77</text>
                                <text transform="translate(10,6)" x="460" y="152.85714285714283" fill="rgba(127, 127, 127, .8)">+33</text>
                            </g>
                        </svg>
                    </section>
                </div>
            </section>
        </div>
        <div xmlns="http://www.w3.org/1999/xhtml" id="metrics-end"></div>
    </foreignObject>
</svg>